<svg version="1.1" id="Layer_1" xmlns="http://www.w3.org/2000/svg" xmlns:xlink="http://www.w3.org/1999/xlink" x="0px" y="0px"
	 width="100%" viewBox="0 0 1536 1024" enable-background="new 0 0 1536 1024" xml:space="preserve">
<path fill="#000000" opacity="1.000000" stroke="none" 
	d="
M945.000000,1025.000000 
	C630.000000,1025.000000 315.500000,1025.000000 1.000000,1025.000000 
	C1.000000,683.666687 1.000000,342.333344 1.000000,1.000000 
	C513.000000,1.000000 1025.000000,1.000000 1537.000000,1.000000 
	C1537.000000,342.333344 1537.000000,683.666687 1537.000000,1025.000000 
	C1339.833374,1025.000000 1142.666626,1025.000000 945.000000,1025.000000 
M520.832092,305.703766 
	C520.246826,305.863617 519.420593,305.829407 519.112305,306.212250 
	C514.163757,312.356262 509.281311,318.553436 504.144379,325.040924 
	C495.707886,322.069702 487.096252,319.036804 477.129700,315.526733 
	C482.617859,322.935425 487.211700,329.286102 491.986298,335.497803 
	C493.567200,337.554565 494.204102,338.860809 492.231720,341.365326 
	C487.364594,347.545715 483.035156,354.149506 477.911224,361.401581 
	C487.394958,358.375854 495.865143,355.673492 504.135895,353.034760 
	C509.689941,360.250427 514.952087,367.086823 520.804016,374.689545 
	C520.804016,372.957306 520.804016,372.328522 520.799500,370.804871 
	C520.792908,362.988190 520.786255,355.171539 521.559753,347.043396 
	C528.947815,344.852631 536.335876,342.661865 543.723999,340.471100 
	C543.715149,340.124878 543.706360,339.778656 543.697510,339.432434 
	C536.079956,336.526611 528.462463,333.620819 520.869751,329.826263 
	C520.841858,322.015778 520.813904,314.205292 520.832092,305.703766 
M272.957581,677.071533 
	C283.761078,666.697998 295.508118,657.703247 308.262238,649.686523 
	C327.110809,637.839111 347.773224,630.452271 368.240906,622.392822 
	C383.881042,616.234253 399.782104,610.520569 414.776306,603.026611 
	C422.921631,598.955750 430.210846,592.311829 436.457764,585.515503 
	C444.660156,576.591675 450.073700,565.539062 454.186615,554.122742 
	C456.951294,546.448669 458.677826,538.400574 460.868805,530.519775 
	C457.395996,532.734009 455.198242,535.584412 452.402496,537.609192 
	C440.913605,545.929871 429.469604,554.311401 415.867523,559.154480 
	C396.486908,566.054932 377.120453,573.017273 357.936401,580.440186 
	C344.744843,585.544434 331.342682,590.518311 319.029388,597.344727 
	C309.514282,602.619812 300.772461,609.858337 294.842468,619.585693 
	C291.714172,624.717224 288.014404,629.591858 285.576904,635.032349 
	C281.466248,644.207397 277.907501,653.654907 274.616882,663.160889 
	C273.103485,667.532837 272.774109,672.314636 271.325836,677.043335 
	C271.323273,677.319702 271.320740,677.596069 271.318115,677.872375 
	C271.660858,677.694397 272.003571,677.516418 272.957581,677.071533 
M279.074890,594.535583 
	C280.862427,593.087952 282.735291,591.733032 284.424011,590.178040 
	C298.840576,576.903687 316.033295,568.897522 334.731354,563.897095 
	C352.640961,559.107727 370.718994,554.932068 388.563629,549.919434 
	C418.867615,541.406860 443.954346,524.305664 464.580383,500.914001 
	C479.972504,483.457977 491.323181,463.295715 500.105164,441.728149 
	C505.563446,428.323151 510.349213,414.635010 511.489136,400.170166 
	C511.850830,395.580780 510.126617,389.815186 507.304626,386.181854 
	C499.723846,376.421631 485.213593,377.415070 478.311462,390.132202 
	C473.772430,398.495361 469.308411,406.978607 463.889313,414.766907 
	C454.853790,427.752716 445.531036,440.599030 435.438660,452.765320 
	C429.840576,459.513672 422.742126,465.153503 415.783173,470.608215 
	C401.777740,481.586212 385.779327,488.822937 368.544464,492.930420 
	C352.578064,496.735565 336.330231,499.357910 320.358704,503.143951 
	C302.498138,507.377777 287.123413,516.792480 273.707092,528.969666 
	C265.220062,536.672729 257.461884,545.351196 250.354706,554.363403 
	C238.381012,569.546570 228.598877,586.118164 222.688171,604.716614 
	C220.862259,610.462036 219.135071,616.556274 221.887695,622.165100 
	C225.656525,629.844604 235.825104,631.835327 243.621368,625.636963 
	C255.727158,616.012512 266.972076,605.305237 279.074890,594.535583 
M234.947876,789.609741 
	C244.649109,784.615540 254.814835,780.344238 263.952728,774.473206 
	C281.738251,763.045959 298.863068,750.596069 316.421600,738.808167 
	C331.131958,728.932556 345.882690,719.092102 360.963257,709.800354 
	C374.424652,701.506226 388.120087,693.469849 403.694000,689.524353 
	C408.970795,688.187439 413.774811,691.985046 413.961060,697.461060 
	C414.314148,707.839355 409.944366,716.740784 405.650513,725.783630 
	C401.777496,733.940186 398.049408,742.233398 395.163483,750.772583 
	C391.977600,760.199341 400.494110,768.690857 410.356262,766.721252 
	C422.459534,764.304077 431.744934,757.087830 440.496246,749.075928 
	C451.807678,738.720154 460.561432,726.398193 466.724792,712.384277 
	C472.850922,698.454895 476.209167,683.943176 472.928436,668.674133 
	C469.497284,652.704834 460.593353,640.452515 445.397797,634.318970 
	C428.755463,627.601379 411.248688,628.687744 394.068207,632.491150 
	C373.225708,637.105286 354.122375,646.098145 336.965393,658.649719 
	C320.921997,670.386597 305.312622,682.765320 290.054962,695.511230 
	C279.201050,704.578247 268.976196,714.451843 258.967773,724.462524 
	C248.723175,734.709290 238.779633,745.297546 229.291183,756.245056 
	C223.299591,763.158020 217.399200,770.361267 214.798492,779.555664 
	C213.333099,784.736267 214.078705,788.584534 218.976959,789.758057 
	C223.793900,790.912170 229.109512,789.984802 234.947876,789.609741 
M384.715057,470.304840 
	C392.129272,467.020630 397.698425,462.019379 402.288300,455.075012 
	C411.241821,441.528534 409.232605,424.016602 401.160553,413.220062 
	C391.616608,400.454834 378.540466,393.704193 361.587646,397.401825 
	C351.066132,399.696747 342.967224,405.187866 336.962982,413.793457 
	C330.528961,423.015045 329.135773,433.208313 331.577454,444.224609 
	C333.210388,451.591888 336.422424,458.118835 341.851440,462.944061 
	C354.177185,473.899200 368.383820,476.873199 384.715057,470.304840 
M1016.006836,536.504333 
	C1012.318542,530.759399 1008.661499,524.993713 1004.900940,519.296509 
	C1004.448547,518.611084 1003.443115,517.888855 1002.680420,517.873901 
	C996.726257,517.757141 990.768738,517.809265 984.778748,517.809265 
	C984.778748,545.582275 984.778748,572.796570 984.778748,600.161011 
	C990.905640,600.161011 996.633667,600.161011 1002.447510,600.161011 
	C1002.447510,582.548218 1002.447510,565.324402 1002.447510,547.226562 
	C1004.132202,549.911621 1005.288940,551.775269 1006.465149,553.626526 
	C1014.679443,566.556152 1022.811646,579.539368 1031.178833,592.369385 
	C1033.136108,595.370667 1035.527466,599.611816 1038.360352,600.201294 
	C1044.220215,601.420837 1050.511230,600.568970 1056.594482,600.568970 
	C1056.594482,572.224426 1056.594482,544.684021 1056.594482,517.471313 
	C1050.391846,517.471313 1044.566406,517.471313 1038.256226,517.471313 
	C1038.256226,534.621460 1038.256226,551.659058 1038.256226,569.998230 
	C1036.646240,567.658752 1035.783813,566.430115 1034.946045,565.184998 
	C1028.681763,555.874207 1022.422241,546.560181 1016.006836,536.504333 
M1324.026855,557.458130 
	C1333.370605,540.410522 1325.056885,519.965210 1304.142456,518.139160 
	C1293.448242,517.205505 1282.643433,517.526123 1271.888184,517.309570 
	C1268.975952,517.250977 1266.061523,517.300720 1263.302002,517.300720 
	C1263.302002,545.460938 1263.302002,572.846558 1263.302002,600.220093 
	C1269.345093,600.220093 1275.072632,600.220093 1281.257568,600.220093 
	C1281.257568,589.798889 1281.257568,579.743164 1281.257568,569.520447 
	C1284.056152,569.520447 1286.421997,569.786682 1288.704834,569.464478 
	C1293.334351,568.811279 1295.946655,570.540039 1297.793579,574.922119 
	C1300.969727,582.458435 1304.790649,589.721802 1308.295044,597.121521 
	C1309.450317,599.560730 1310.821167,600.978760 1313.978149,600.747070 
	C1319.190430,600.364624 1324.451172,600.643311 1330.062988,600.643311 
	C1324.408569,589.210754 1318.984009,578.242676 1313.568481,567.293091 
	C1317.140137,564.134583 1320.500610,561.162781 1324.026855,557.458130 
M1201.505493,584.633484 
	C1200.088013,584.530701 1198.670532,584.427917 1197.266602,584.326111 
	C1197.266602,577.986694 1197.266602,572.063110 1197.266602,565.806030 
	C1209.458008,565.806030 1221.400146,565.806030 1233.675171,565.806030 
	C1233.675171,560.393616 1233.675171,555.311768 1233.675171,550.130920 
	C1221.622192,550.130920 1209.528687,550.130920 1197.377197,550.130920 
	C1197.377197,544.485107 1197.377197,538.775513 1197.377197,532.814453 
	C1210.523926,532.814453 1223.306885,532.814453 1236.347168,532.814453 
	C1236.347168,527.500244 1236.347168,522.451782 1236.347168,517.653198 
	C1216.807007,517.653198 1197.577881,517.653198 1178.595703,517.653198 
	C1178.595703,545.585876 1178.595703,573.166626 1178.595703,600.587952 
	C1198.482178,600.587952 1218.077148,600.587952 1237.521240,600.587952 
	C1237.521240,595.169495 1237.521240,590.025085 1237.521240,584.633362 
	C1225.795898,584.633362 1214.152832,584.633362 1201.505493,584.633484 
M559.775940,530.384155 
	C565.475037,530.544800 572.288391,530.250793 574.725098,536.045471 
	C577.037659,541.544800 580.448547,541.068909 584.582642,541.012939 
	C587.701599,540.970764 590.821594,541.004639 594.260498,541.004639 
	C594.718140,531.860046 590.238831,525.465332 583.584717,521.160522 
	C571.285095,513.203552 558.045044,513.408569 544.894897,519.280029 
	C535.684753,523.392334 531.556702,530.483582 531.692566,540.848206 
	C531.784851,547.885498 533.935425,552.752502 539.270630,557.379578 
	C545.191528,562.514587 552.388855,563.529419 559.170715,566.093445 
	C564.618103,568.152954 570.063660,570.486572 575.005798,573.519958 
	C578.384094,575.593506 577.938293,580.914246 574.895569,583.573914 
	C569.331238,588.437805 554.378601,587.978027 550.972351,582.533081 
	C547.548401,577.059875 543.604065,572.976318 536.314514,574.971680 
	C534.780151,575.391663 532.898071,574.689636 531.452515,575.235901 
	C530.423462,575.624756 529.077148,577.349121 529.208862,578.290344 
	C530.251587,585.737488 534.101196,591.858276 540.265991,595.840149 
	C552.263733,603.589600 565.318420,603.707947 578.735046,599.882080 
	C590.706909,596.468262 595.910400,586.687256 595.473083,576.781433 
	C594.908020,563.981750 590.570068,558.919556 577.093933,553.631287 
	C570.018311,550.854614 562.518066,549.139282 555.509705,546.223328 
	C552.961304,545.163025 549.725525,542.075073 549.627625,539.791138 
	C549.519470,537.269836 552.423279,534.403320 554.482422,532.105957 
	C555.367676,531.118286 557.430115,531.185669 559.775940,530.384155 
M704.586670,581.805542 
	C706.507324,587.969177 710.457886,592.549683 715.757019,596.057983 
	C724.733337,602.000793 734.713257,602.516846 745.030334,601.640137 
	C754.764465,600.812927 762.916443,597.423950 768.816467,589.173035 
	C772.619568,583.854492 773.938538,577.977356 773.970459,571.714600 
	C774.061646,553.819153 774.002563,535.922913 774.002563,517.713257 
	C768.333740,517.713257 762.402161,517.713257 755.997437,517.713257 
	C755.997437,526.158203 755.997437,534.414429 755.997437,542.670654 
	C755.997437,551.003784 755.918152,559.337769 756.014099,567.669800 
	C756.208740,584.569946 742.992859,589.629883 729.719421,584.335144 
	C724.906433,582.415222 721.838318,578.260010 721.717163,572.889343 
	C721.339111,556.134888 721.225952,539.374512 720.995239,522.616638 
	C720.973206,521.023193 720.847717,519.431152 720.774231,517.919556 
	C714.645203,517.919556 708.919617,517.919556 702.998108,517.919556 
	C702.998108,536.485657 702.934692,554.643311 703.066467,572.799561 
	C703.086304,575.522278 704.020325,578.238464 704.586670,581.805542 
M923.420654,517.822998 
	C919.271423,517.822998 915.122253,517.822998 910.989258,517.822998 
	C910.293823,519.834717 909.697998,521.634460 909.051697,523.415894 
	C903.513977,538.678894 897.986938,553.945862 892.415771,569.196716 
	C889.030762,578.463318 885.692383,587.750488 882.074036,596.926270 
	C881.027100,599.581360 881.476562,600.619202 884.201843,600.644409 
	C889.343689,600.692017 894.486328,600.658203 899.565247,600.658203 
	C901.881897,594.350403 904.095520,588.323181 906.362366,582.151123 
	C916.445496,582.151123 926.580200,582.151123 936.883728,582.151123 
	C939.134155,588.237671 941.403198,594.374634 943.653320,600.460449 
	C949.920837,600.460449 956.311523,600.460449 962.625732,600.460449 
	C952.621643,572.712646 942.675354,545.125183 932.831299,517.821228 
	C929.691528,517.821228 927.032532,517.821228 923.420654,517.822998 
M1093.928223,525.389343 
	C1087.619629,529.896790 1084.944214,536.597046 1083.348633,543.734497 
	C1081.444580,552.251709 1080.677612,560.716309 1082.352173,569.603699 
	C1084.196289,579.391907 1087.524170,588.311340 1095.277588,594.306396 
	C1108.851440,604.802002 1130.057617,605.114014 1143.273682,595.674500 
	C1150.345337,590.623535 1154.702759,582.975525 1154.548950,573.270569 
	C1148.217285,573.270569 1142.288940,573.270569 1136.036865,573.270569 
	C1135.380371,581.028931 1130.643311,585.041504 1123.173706,585.903564 
	C1111.752686,587.221619 1103.591797,582.000122 1101.904541,570.821411 
	C1101.034058,565.054749 1101.198975,559.139282 1100.674561,553.310913 
	C1100.015625,545.987488 1105.958618,535.540161 1112.608398,532.972290 
	C1117.635986,531.030884 1122.803711,530.392334 1127.825439,532.909546 
	C1132.706787,535.356384 1135.282593,539.526367 1135.545410,545.004395 
	C1141.112793,545.004395 1146.281006,545.162659 1151.423950,544.872070 
	C1152.463623,544.813354 1154.355957,542.939697 1154.252075,542.101196 
	C1152.836060,530.661987 1146.422729,522.531738 1136.009644,518.270813 
	C1125.980469,514.166992 1115.408325,514.069580 1105.256470,518.309998 
	C1101.408936,519.917114 1098.028076,522.640991 1093.928223,525.389343 
M657.007629,574.500000 
	C657.007629,560.737427 657.007629,546.974854 657.007629,533.041809 
	C665.561829,533.041809 673.537170,533.041809 681.434509,533.041809 
	C681.434509,527.858032 681.434509,522.853027 681.434509,517.603333 
	C658.785522,517.603333 636.052917,517.603333 613.356323,517.603333 
	C613.356323,522.689880 613.356323,527.617188 613.356323,533.054688 
	C621.995361,533.054688 630.386292,533.054688 638.687256,533.054688 
	C638.687256,555.625732 638.687256,577.678162 638.687256,600.129272 
	C644.651917,600.129272 650.700195,600.129272 657.007629,600.129272 
	C657.007629,591.811340 657.007629,583.655640 657.007629,574.500000 
M819.007629,538.500610 
	C819.007629,531.758179 819.007629,525.015808 819.007629,517.911987 
	C813.339600,517.911987 807.279663,517.911987 801.444885,517.911987 
	C801.444885,545.555420 801.444885,573.037476 801.444885,600.436646 
	C821.015442,600.436646 840.429138,600.436646 859.946045,600.436646 
	C859.946045,596.186768 859.805908,592.186584 859.991272,588.201477 
	C860.134216,585.128052 858.864746,584.014832 855.900940,584.089905 
	C851.239502,584.207886 846.573059,584.128418 841.908691,584.129395 
	C834.327515,584.130859 826.746399,584.129822 819.007629,584.129822 
	C819.007629,568.788574 819.007629,554.144409 819.007629,538.500610 
z"/>
<path fill="#5219B5" opacity="1.000000" stroke="none" 
	d="
M278.828400,594.796265 
	C266.972076,605.305237 255.727158,616.012512 243.621368,625.636963 
	C235.825104,631.835327 225.656525,629.844604 221.887695,622.165100 
	C219.135071,616.556274 220.862259,610.462036 222.688171,604.716614 
	C228.598877,586.118164 238.381012,569.546570 250.354706,554.363403 
	C257.461884,545.351196 265.220062,536.672729 273.707092,528.969666 
	C287.123413,516.792480 302.498138,507.377777 320.358704,503.143951 
	C336.330231,499.357910 352.578064,496.735565 368.544464,492.930420 
	C385.779327,488.822937 401.777740,481.586212 415.783173,470.608215 
	C422.742126,465.153503 429.840576,459.513672 435.438660,452.765320 
	C445.531036,440.599030 454.853790,427.752716 463.889313,414.766907 
	C469.308411,406.978607 473.772430,398.495361 478.311462,390.132202 
	C485.213593,377.415070 499.723846,376.421631 507.304626,386.181854 
	C510.126617,389.815186 511.850830,395.580780 511.489136,400.170166 
	C510.349213,414.635010 505.563446,428.323151 500.105164,441.728149 
	C491.323181,463.295715 479.972504,483.457977 464.580383,500.914001 
	C443.954346,524.305664 418.867615,541.406860 388.563629,549.919434 
	C370.718994,554.932068 352.640961,559.107727 334.731354,563.897095 
	C316.033295,568.897522 298.840576,576.903687 284.424011,590.178040 
	C282.735291,591.733032 280.862427,593.087952 278.828400,594.796265 
z"/>
<path fill="#5219B5" opacity="1.000000" stroke="none" 
	d="
M234.577087,789.790283 
	C229.109512,789.984802 223.793900,790.912170 218.976959,789.758057 
	C214.078705,788.584534 213.333099,784.736267 214.798492,779.555664 
	C217.399200,770.361267 223.299591,763.158020 229.291183,756.245056 
	C238.779633,745.297546 248.723175,734.709290 258.967773,724.462524 
	C268.976196,714.451843 279.201050,704.578247 290.054962,695.511230 
	C305.312622,682.765320 320.921997,670.386597 336.965393,658.649719 
	C354.122375,646.098145 373.225708,637.105286 394.068207,632.491150 
	C411.248688,628.687744 428.755463,627.601379 445.397797,634.318970 
	C460.593353,640.452515 469.497284,652.704834 472.928436,668.674133 
	C476.209167,683.943176 472.850922,698.454895 466.724792,712.384277 
	C460.561432,726.398193 451.807678,738.720154 440.496246,749.075928 
	C431.744934,757.087830 422.459534,764.304077 410.356262,766.721252 
	C400.494110,768.690857 391.977600,760.199341 395.163483,750.772583 
	C398.049408,742.233398 401.777496,733.940186 405.650513,725.783630 
	C409.944366,716.740784 414.314148,707.839355 413.961060,697.461060 
	C413.774811,691.985046 408.970795,688.187439 403.694000,689.524353 
	C388.120087,693.469849 374.424652,701.506226 360.963257,709.800354 
	C345.882690,719.092102 331.131958,728.932556 316.421600,738.808167 
	C298.863068,750.596069 281.738251,763.045959 263.952728,774.473206 
	C254.814835,780.344238 244.649109,784.615540 234.577087,789.790283 
z"/>
<path fill="#FEFEFE" opacity="1.000000" stroke="none" 
	d="
M271.907837,676.910583 
	C272.774109,672.314636 273.103485,667.532837 274.616882,663.160889 
	C277.907501,653.654907 281.466248,644.207397 285.576904,635.032349 
	C288.014404,629.591858 291.714172,624.717224 294.842468,619.585693 
	C300.772461,609.858337 309.514282,602.619812 319.029388,597.344727 
	C331.342682,590.518311 344.744843,585.544434 357.936401,580.440186 
	C377.120453,573.017273 396.486908,566.054932 415.867523,559.154480 
	C429.469604,554.311401 440.913605,545.929871 452.402496,537.609192 
	C455.198242,535.584412 457.395996,532.734009 460.868805,530.519775 
	C458.677826,538.400574 456.951294,546.448669 454.186615,554.122742 
	C450.073700,565.539062 444.660156,576.591675 436.457764,585.515503 
	C430.210846,592.311829 422.921631,598.955750 414.776306,603.026611 
	C399.782104,610.520569 383.881042,616.234253 368.240906,622.392822 
	C347.773224,630.452271 327.110809,637.839111 308.262238,649.686523 
	C295.508118,657.703247 283.761078,666.697998 272.542114,677.098267 
	C272.126617,677.125000 271.907837,676.910583 271.907837,676.910583 
z"/>
<path fill="#FEFEFE" opacity="1.000000" stroke="none" 
	d="
M384.392639,470.532074 
	C368.383820,476.873199 354.177185,473.899200 341.851440,462.944061 
	C336.422424,458.118835 333.210388,451.591888 331.577454,444.224609 
	C329.135773,433.208313 330.528961,423.015045 336.962982,413.793457 
	C342.967224,405.187866 351.066132,399.696747 361.587646,397.401825 
	C378.540466,393.704193 391.616608,400.454834 401.160553,413.220062 
	C409.232605,424.016602 411.241821,441.528534 402.288300,455.075012 
	C397.698425,462.019379 392.129272,467.020630 384.392639,470.532074 
z"/>
<path fill="#FAFAFA" opacity="1.000000" stroke="none" 
	d="
M1016.083984,536.875793 
	C1022.422241,546.560181 1028.681763,555.874207 1034.946045,565.184998 
	C1035.783813,566.430115 1036.646240,567.658752 1038.256226,569.998230 
	C1038.256226,551.659058 1038.256226,534.621460 1038.256226,517.471313 
	C1044.566406,517.471313 1050.391846,517.471313 1056.594482,517.471313 
	C1056.594482,544.684021 1056.594482,572.224426 1056.594482,600.568970 
	C1050.511230,600.568970 1044.220215,601.420837 1038.360352,600.201294 
	C1035.527466,599.611816 1033.136108,595.370667 1031.178833,592.369385 
	C1022.811646,579.539368 1014.679443,566.556152 1006.465149,553.626526 
	C1005.288940,551.775269 1004.132202,549.911621 1002.447510,547.226562 
	C1002.447510,565.324402 1002.447510,582.548218 1002.447510,600.161011 
	C996.633667,600.161011 990.905640,600.161011 984.778748,600.161011 
	C984.778748,572.796570 984.778748,545.582275 984.778748,517.809265 
	C990.768738,517.809265 996.726257,517.757141 1002.680420,517.873901 
	C1003.443115,517.888855 1004.448547,518.611084 1004.900940,519.296509 
	C1008.661499,524.993713 1012.318542,530.759399 1016.083984,536.875793 
M986.014465,596.290283 
	C986.640503,597.186340 987.223572,598.818481 987.899597,598.858032 
	C992.026672,599.099121 996.174805,598.978516 1000.315979,598.978516 
	C1000.311951,598.601013 1000.307922,598.223572 1000.303894,597.846069 
	C995.909363,597.846069 991.514893,597.846069 986.826416,597.846069 
	C986.826416,578.383789 986.826416,559.438904 986.826416,540.494019 
	C986.555481,540.494324 986.284607,540.494629 986.013672,540.494873 
	C986.013672,558.770752 986.013672,577.046692 986.014465,596.290283 
z"/>
<path fill="#FCFCFC" opacity="1.000000" stroke="none" 
	d="
M1323.944092,557.824524 
	C1320.500610,561.162781 1317.140137,564.134583 1313.568481,567.293091 
	C1318.984009,578.242676 1324.408569,589.210754 1330.062988,600.643311 
	C1324.451172,600.643311 1319.190430,600.364624 1313.978149,600.747070 
	C1310.821167,600.978760 1309.450317,599.560730 1308.295044,597.121521 
	C1304.790649,589.721802 1300.969727,582.458435 1297.793579,574.922119 
	C1295.946655,570.540039 1293.334351,568.811279 1288.704834,569.464478 
	C1286.421997,569.786682 1284.056152,569.520447 1281.257568,569.520447 
	C1281.257568,579.743164 1281.257568,589.798889 1281.257568,600.220093 
	C1275.072632,600.220093 1269.345093,600.220093 1263.302002,600.220093 
	C1263.302002,572.846558 1263.302002,545.460938 1263.302002,517.300720 
	C1266.061523,517.300720 1268.975952,517.250977 1271.888184,517.309570 
	C1282.643433,517.526123 1293.448242,517.205505 1304.142456,518.139160 
	C1325.056885,519.965210 1333.370605,540.410522 1323.944092,557.824524 
M1290.507568,553.993347 
	C1293.667603,553.993042 1296.838013,554.156006 1299.985352,553.956543 
	C1305.638916,553.598389 1309.495117,550.264221 1309.983887,545.597534 
	C1310.624390,539.481323 1308.020508,534.154053 1302.640015,533.312866 
	C1295.601440,532.212524 1288.367065,532.365051 1281.304321,531.983276 
	C1281.304321,539.990906 1281.304321,546.898254 1281.304321,553.993347 
	C1284.242554,553.993347 1286.884766,553.993347 1290.507568,553.993347 
z"/>
<path fill="#F9F9F9" opacity="1.000000" stroke="none" 
	d="
M1202.007690,584.633423 
	C1214.152832,584.633362 1225.795898,584.633362 1237.521240,584.633362 
	C1237.521240,590.025085 1237.521240,595.169495 1237.521240,600.587952 
	C1218.077148,600.587952 1198.482178,600.587952 1178.595703,600.587952 
	C1178.595703,573.166626 1178.595703,545.585876 1178.595703,517.653198 
	C1197.577881,517.653198 1216.807007,517.653198 1236.347168,517.653198 
	C1236.347168,522.451782 1236.347168,527.500244 1236.347168,532.814453 
	C1223.306885,532.814453 1210.523926,532.814453 1197.377197,532.814453 
	C1197.377197,538.775513 1197.377197,544.485107 1197.377197,550.130920 
	C1209.528687,550.130920 1221.622192,550.130920 1233.675171,550.130920 
	C1233.675171,555.311768 1233.675171,560.393616 1233.675171,565.806030 
	C1221.400146,565.806030 1209.458008,565.806030 1197.266602,565.806030 
	C1197.266602,572.063110 1197.266602,577.986694 1197.266602,584.326111 
	C1198.670532,584.427917 1200.088013,584.530701 1202.007690,584.633423 
M1180.987061,582.329346 
	C1180.987061,561.281677 1180.987061,540.234009 1180.987061,519.186340 
	C1180.809570,519.185547 1180.632080,519.184753 1180.454590,519.183960 
	C1180.454590,542.185730 1180.454590,565.187439 1180.454590,588.189148 
	C1180.632080,588.194275 1180.809448,588.199402 1180.986938,588.204468 
	C1180.986938,586.560791 1180.986938,584.917114 1180.987061,582.329346 
z"/>
<path fill="#FDFDFD" opacity="1.000000" stroke="none" 
	d="
M559.366821,530.578918 
	C557.430115,531.185669 555.367676,531.118286 554.482422,532.105957 
	C552.423279,534.403320 549.519470,537.269836 549.627625,539.791138 
	C549.725525,542.075073 552.961304,545.163025 555.509705,546.223328 
	C562.518066,549.139282 570.018311,550.854614 577.093933,553.631287 
	C590.570068,558.919556 594.908020,563.981750 595.473083,576.781433 
	C595.910400,586.687256 590.706909,596.468262 578.735046,599.882080 
	C565.318420,603.707947 552.263733,603.589600 540.265991,595.840149 
	C534.101196,591.858276 530.251587,585.737488 529.208862,578.290344 
	C529.077148,577.349121 530.423462,575.624756 531.452515,575.235901 
	C532.898071,574.689636 534.780151,575.391663 536.314514,574.971680 
	C543.604065,572.976318 547.548401,577.059875 550.972351,582.533081 
	C554.378601,587.978027 569.331238,588.437805 574.895569,583.573914 
	C577.938293,580.914246 578.384094,575.593506 575.005798,573.519958 
	C570.063660,570.486572 564.618103,568.152954 559.170715,566.093445 
	C552.388855,563.529419 545.191528,562.514587 539.270630,557.379578 
	C533.935425,552.752502 531.784851,547.885498 531.692566,540.848206 
	C531.556702,530.483582 535.684753,523.392334 544.894897,519.280029 
	C558.045044,513.408569 571.285095,513.203552 583.584717,521.160522 
	C590.238831,525.465332 594.718140,531.860046 594.260498,541.004639 
	C590.821594,541.004639 587.701599,540.970764 584.582642,541.012939 
	C580.448547,541.068909 577.037659,541.544800 574.725098,536.045471 
	C572.288391,530.250793 565.475037,530.544800 559.366821,530.578918 
z"/>
<path fill="#FEFEFE" opacity="1.000000" stroke="none" 
	d="
M704.559082,581.381592 
	C704.020325,578.238464 703.086304,575.522278 703.066467,572.799561 
	C702.934692,554.643311 702.998108,536.485657 702.998108,517.919556 
	C708.919617,517.919556 714.645203,517.919556 720.774231,517.919556 
	C720.847717,519.431152 720.973206,521.023193 720.995239,522.616638 
	C721.225952,539.374512 721.339111,556.134888 721.717163,572.889343 
	C721.838318,578.260010 724.906433,582.415222 729.719421,584.335144 
	C742.992859,589.629883 756.208740,584.569946 756.014099,567.669800 
	C755.918152,559.337769 755.997437,551.003784 755.997437,542.670654 
	C755.997437,534.414429 755.997437,526.158203 755.997437,517.713257 
	C762.402161,517.713257 768.333740,517.713257 774.002563,517.713257 
	C774.002563,535.922913 774.061646,553.819153 773.970459,571.714600 
	C773.938538,577.977356 772.619568,583.854492 768.816467,589.173035 
	C762.916443,597.423950 754.764465,600.812927 745.030334,601.640137 
	C734.713257,602.516846 724.733337,602.000793 715.757019,596.057983 
	C710.457886,592.549683 706.507324,587.969177 704.559082,581.381592 
z"/>
<path fill="#FDFDFD" opacity="1.000000" stroke="none" 
	d="
M923.897095,517.822144 
	C927.032532,517.821228 929.691528,517.821228 932.831299,517.821228 
	C942.675354,545.125183 952.621643,572.712646 962.625732,600.460449 
	C956.311523,600.460449 949.920837,600.460449 943.653320,600.460449 
	C941.403198,594.374634 939.134155,588.237671 936.883728,582.151123 
	C926.580200,582.151123 916.445496,582.151123 906.362366,582.151123 
	C904.095520,588.323181 901.881897,594.350403 899.565247,600.658203 
	C894.486328,600.658203 889.343689,600.692017 884.201843,600.644409 
	C881.476562,600.619202 881.027100,599.581360 882.074036,596.926270 
	C885.692383,587.750488 889.030762,578.463318 892.415771,569.196716 
	C897.986938,553.945862 903.513977,538.678894 909.051697,523.415894 
	C909.697998,521.634460 910.293823,519.834717 910.989258,517.822998 
	C915.122253,517.822998 919.271423,517.822998 923.897095,517.822144 
M922.339050,538.241089 
	C921.752075,538.936096 920.898987,539.538269 920.619202,540.340393 
	C917.638794,548.885315 914.749390,557.461914 911.694458,566.442932 
	C918.267578,566.442932 924.809631,566.442932 931.785828,566.442932 
	C928.715942,557.345520 925.624634,548.184631 922.339050,538.241089 
z"/>
<path fill="#FDFDFD" opacity="1.000000" stroke="none" 
	d="
M1094.181396,525.122559 
	C1098.028076,522.640991 1101.408936,519.917114 1105.256470,518.309998 
	C1115.408325,514.069580 1125.980469,514.166992 1136.009644,518.270813 
	C1146.422729,522.531738 1152.836060,530.661987 1154.252075,542.101196 
	C1154.355957,542.939697 1152.463623,544.813354 1151.423950,544.872070 
	C1146.281006,545.162659 1141.112793,545.004395 1135.545410,545.004395 
	C1135.282593,539.526367 1132.706787,535.356384 1127.825439,532.909546 
	C1122.803711,530.392334 1117.635986,531.030884 1112.608398,532.972290 
	C1105.958618,535.540161 1100.015625,545.987488 1100.674561,553.310913 
	C1101.198975,559.139282 1101.034058,565.054749 1101.904541,570.821411 
	C1103.591797,582.000122 1111.752686,587.221619 1123.173706,585.903564 
	C1130.643311,585.041504 1135.380371,581.028931 1136.036865,573.270569 
	C1142.288940,573.270569 1148.217285,573.270569 1154.548950,573.270569 
	C1154.702759,582.975525 1150.345337,590.623535 1143.273682,595.674500 
	C1130.057617,605.114014 1108.851440,604.802002 1095.277588,594.306396 
	C1087.524170,588.311340 1084.196289,579.391907 1082.352173,569.603699 
	C1080.677612,560.716309 1081.444580,552.251709 1083.348633,543.734497 
	C1084.944214,536.597046 1087.619629,529.896790 1094.181396,525.122559 
z"/>
<path fill="#FBFBFB" opacity="1.000000" stroke="none" 
	d="
M657.007629,575.000000 
	C657.007629,583.655640 657.007629,591.811340 657.007629,600.129272 
	C650.700195,600.129272 644.651917,600.129272 638.687256,600.129272 
	C638.687256,577.678162 638.687256,555.625732 638.687256,533.054688 
	C630.386292,533.054688 621.995361,533.054688 613.356323,533.054688 
	C613.356323,527.617188 613.356323,522.689880 613.356323,517.603333 
	C636.052917,517.603333 658.785522,517.603333 681.434509,517.603333 
	C681.434509,522.853027 681.434509,527.858032 681.434509,533.041809 
	C673.537170,533.041809 665.561829,533.041809 657.007629,533.041809 
	C657.007629,546.974854 657.007629,560.737427 657.007629,575.000000 
z"/>
<path fill="#FBFBFB" opacity="1.000000" stroke="none" 
	d="
M819.007629,539.000488 
	C819.007629,554.144409 819.007629,568.788574 819.007629,584.129822 
	C826.746399,584.129822 834.327515,584.130859 841.908691,584.129395 
	C846.573059,584.128418 851.239502,584.207886 855.900940,584.089905 
	C858.864746,584.014832 860.134216,585.128052 859.991272,588.201477 
	C859.805908,592.186584 859.946045,596.186768 859.946045,600.436646 
	C840.429138,600.436646 821.015442,600.436646 801.444885,600.436646 
	C801.444885,573.037476 801.444885,545.555420 801.444885,517.911987 
	C807.279663,517.911987 813.339600,517.911987 819.007629,517.911987 
	C819.007629,525.015808 819.007629,531.758179 819.007629,539.000488 
M845.479370,598.010315 
	C831.546814,598.010315 817.614319,598.010315 803.681763,598.010315 
	C803.685181,598.235413 803.688660,598.460510 803.692139,598.685608 
	C821.570923,598.685608 839.449768,598.685608 857.328613,598.685608 
	C857.331116,598.460571 857.333618,598.235596 857.336121,598.010559 
	C853.713684,598.010559 850.091309,598.010559 845.479370,598.010315 
z"/>
<path fill="#4F19B4" opacity="1.000000" stroke="none" 
	d="
M520.804016,371.699768 
	C520.804016,372.328522 520.804016,372.957306 520.804016,374.689545 
	C514.952087,367.086823 509.689941,360.250427 504.135895,353.034760 
	C495.865143,355.673492 487.394958,358.375854 477.911224,361.401581 
	C483.035156,354.149506 487.364594,347.545715 492.231720,341.365326 
	C494.204102,338.860809 493.567200,337.554565 491.986298,335.497803 
	C487.211700,329.286102 482.617859,322.935425 477.129700,315.526733 
	C487.096252,319.036804 495.707886,322.069702 504.144379,325.040924 
	C509.281311,318.553436 514.163757,312.356262 519.112305,306.212250 
	C519.420593,305.829407 520.246826,305.863617 520.681641,306.401398 
	C520.635803,314.971008 520.740356,322.843018 520.844849,330.715027 
	C528.462463,333.620819 536.079956,336.526611 543.697510,339.432434 
	C543.706360,339.778656 543.715149,340.124878 543.723999,340.471100 
	C536.335876,342.661865 528.947815,344.852631 520.971741,347.525818 
	C520.523865,355.905396 520.663940,363.802582 520.804016,371.699768 
z"/>
<path fill="#F9F9F9" opacity="1.000000" stroke="none" 
	d="
M520.801758,371.252319 
	C520.663940,363.802582 520.523865,355.905396 520.581665,347.681519 
	C520.786255,355.171539 520.792908,362.988190 520.801758,371.252319 
z"/>
<path fill="#F9F9F9" opacity="1.000000" stroke="none" 
	d="
M520.857300,330.270630 
	C520.740356,322.843018 520.635803,314.971008 520.658630,306.746918 
	C520.813904,314.205292 520.841858,322.015778 520.857300,330.270630 
z"/>
<path fill="#FEFEFE" opacity="1.000000" stroke="none" 
	d="
M272.236450,677.231689 
	C272.003571,677.516418 271.660858,677.694397 271.318146,677.872437 
	C271.320740,677.596069 271.323273,677.319702 271.616821,676.976929 
	C271.907837,676.910583 272.126617,677.125000 272.236450,677.231689 
z"/>
<path fill="#29292A" opacity="1.000000" stroke="none" 
	d="
M986.014038,595.806396 
	C986.013672,577.046692 986.013672,558.770752 986.013672,540.494873 
	C986.284607,540.494629 986.555481,540.494324 986.826416,540.494019 
	C986.826416,559.438904 986.826416,578.383789 986.826416,597.846069 
	C991.514893,597.846069 995.909363,597.846069 1000.303894,597.846069 
	C1000.307922,598.223572 1000.311951,598.601013 1000.315979,598.978516 
	C996.174805,598.978516 992.026672,599.099121 987.899597,598.858032 
	C987.223572,598.818481 986.640503,597.186340 986.014038,595.806396 
z"/>
<path fill="#000000" opacity="1.000000" stroke="none" 
	d="
M1290.017212,553.993347 
	C1286.884766,553.993347 1284.242554,553.993347 1281.304321,553.993347 
	C1281.304321,546.898254 1281.304321,539.990906 1281.304321,531.983276 
	C1288.367065,532.365051 1295.601440,532.212524 1302.640015,533.312866 
	C1308.020508,534.154053 1310.624390,539.481323 1309.983887,545.597534 
	C1309.495117,550.264221 1305.638916,553.598389 1299.985352,553.956543 
	C1296.838013,554.156006 1293.667603,553.993042 1290.017212,553.993347 
z"/>
<path fill="#29292A" opacity="1.000000" stroke="none" 
	d="
M1180.987061,582.801392 
	C1180.986938,584.917114 1180.986938,586.560791 1180.986938,588.204468 
	C1180.809448,588.199402 1180.632080,588.194275 1180.454590,588.189148 
	C1180.454590,565.187439 1180.454590,542.185730 1180.454590,519.183960 
	C1180.632080,519.184753 1180.809570,519.185547 1180.987061,519.186340 
	C1180.987061,540.234009 1180.987061,561.281677 1180.987061,582.801392 
z"/>
<path fill="#000000" opacity="1.000000" stroke="none" 
	d="
M922.436157,538.632446 
	C925.624634,548.184631 928.715942,557.345520 931.785828,566.442932 
	C924.809631,566.442932 918.267578,566.442932 911.694458,566.442932 
	C914.749390,557.461914 917.638794,548.885315 920.619202,540.340393 
	C920.898987,539.538269 921.752075,538.936096 922.436157,538.632446 
z"/>
<path fill="#29292A" opacity="1.000000" stroke="none" 
	d="
M845.974121,598.010437 
	C850.091309,598.010559 853.713684,598.010559 857.336121,598.010559 
	C857.333618,598.235596 857.331116,598.460571 857.328613,598.685608 
	C839.449768,598.685608 821.570923,598.685608 803.692139,598.685608 
	C803.688660,598.460510 803.685181,598.235413 803.681763,598.010315 
	C817.614319,598.010315 831.546814,598.010315 845.974121,598.010437 
z"/>
</svg>