<?xml version="1.0" encoding="UTF-8"?>
<svg version="1.1" xmlns="http://www.w3.org/2000/svg" width="150" height="30">
<path d="M0 0 C0 0.66 0 1.32 0 2 C-0.9590625 2.4021875 -0.9590625 2.4021875 -1.9375 2.8125 C-4.33131686 3.88667752 -4.33131686 3.88667752 -5 7 C-6.72626985 7.74913597 -8.45586386 8.49295762 -10.2109375 9.171875 C-12.66766575 10.30905052 -14.24858768 11.96836171 -16 14 C-13.69 14.99 -11.38 15.98 -9 17 C-9.495 18.485 -9.495 18.485 -10 20 C-15.61897168 22.66161816 -19.82711812 23.3306901 -26 23 C-25.505 21.515 -25.505 21.515 -25 20 C-25.91289795 20.15670166 -26.8257959 20.31340332 -27.76635742 20.47485352 C-31.16642875 21.05410891 -34.56765385 21.62530788 -37.9699707 22.19116211 C-39.43991103 22.43731198 -40.90932536 22.68662532 -42.37817383 22.93920898 C-44.4942877 23.30252417 -46.61205632 23.65427571 -48.73046875 24.00390625 C-50.00301514 24.21861572 -51.27556152 24.4333252 -52.58666992 24.65454102 C-55.73926035 24.97361086 -57.96966062 24.8329003 -61 24 C-58.82089773 21.54765607 -57.04355813 20.45350032 -53.9375 19.4375 C-51.19631961 18.53398244 -50.09299206 18.09299206 -48 16 C-51.63 16 -55.26 16 -59 16 C-59 15.34 -59 14.68 -59 14 C-51.8876539 10.21410001 -44.958346 8.9348289 -37 8 C-37 7.01 -37 6.02 -37 5 C-34.39080172 3.69540086 -32.41057385 3.8673406 -29.5 3.875 C-28.5203125 3.87242187 -27.540625 3.86984375 -26.53125 3.8671875 C-24 4 -24 4 -22 5 C-22 5.66 -22 6.32 -22 7 C-18.7 5.68 -15.4 4.36 -12 3 C-12 2.01 -12 1.02 -12 0 C-7.66726186 -0.92844389 -4.33273814 -0.92844389 0 0 Z " fill="#7024E6" transform="translate(105,3)"/>
<path d="M0 0 C-0.33 0.99 -0.66 1.98 -1 3 C-6.61897168 5.66161816 -10.82711812 6.3306901 -17 6 C-16.67 5.01 -16.34 4.02 -16 3 C-16.91289795 3.15670166 -17.8257959 3.31340332 -18.76635742 3.47485352 C-22.16642875 4.05410891 -25.56765385 4.62530788 -28.9699707 5.19116211 C-30.43991103 5.43731198 -31.90932536 5.68662532 -33.37817383 5.93920898 C-35.4942877 6.30252417 -37.61205632 6.65427571 -39.73046875 7.00390625 C-41.63928833 7.32597046 -41.63928833 7.32597046 -43.58666992 7.65454102 C-46.73926035 7.97361086 -48.96966062 7.8329003 -52 7 C-49.33912516 3.51504825 -45.8209383 2.88128989 -41.75 1.9375 C-41.04125732 1.76831055 -40.33251465 1.59912109 -39.60229492 1.42480469 C-11.12691341 -5.1354985 -11.12691341 -5.1354985 0 0 Z " fill="#5815BF" transform="translate(96,20)"/>
<path d="M0 0 C1.12535156 -0.0309375 1.12535156 -0.0309375 2.2734375 -0.0625 C6.76998367 -0.0943904 8.97023504 0.38193277 12.375 3.25 C11.31587402 3.37846313 11.31587402 3.37846313 10.23535156 3.50952148 C7.03157933 3.89958944 3.82829125 4.29350251 0.625 4.6875 C-1.04175781 4.88956055 -1.04175781 4.88956055 -2.7421875 5.09570312 C-3.81210938 5.22783203 -4.88203125 5.35996094 -5.984375 5.49609375 C-7.46115723 5.67676392 -7.46115723 5.67676392 -8.96777344 5.86108398 C-11.24888324 6.19495094 -13.39676894 6.67583959 -15.625 7.25 C-17.04034778 7.31456879 -18.45837689 7.33611039 -19.875 7.3125 C-21.73125 7.2815625 -21.73125 7.2815625 -23.625 7.25 C-23.625 6.59 -23.625 5.93 -23.625 5.25 C-22.25429219 4.59510627 -20.87816556 3.95155037 -19.5 3.3125 C-18.73429687 2.95285156 -17.96859375 2.59320313 -17.1796875 2.22265625 C-11.59458915 0.09621972 -5.89911525 0.04096608 0 0 Z " fill="#671CD8" transform="translate(69.625,11.75)"/>
<path d="M0 0 C-1 3 -1 3 -3.23291016 4.13647461 C-5.94885721 4.98403988 -8.45214695 5.4724644 -11.2734375 5.81640625 C-12.7584375 6.00299805 -12.7584375 6.00299805 -14.2734375 6.19335938 C-15.80871094 6.37608398 -15.80871094 6.37608398 -17.375 6.5625 C-19.4036819 6.81351077 -21.43232862 7.06480606 -23.4609375 7.31640625 C-24.88937988 7.49067139 -24.88937988 7.49067139 -26.34667969 7.66845703 C-29.57127336 8.07138289 -32.78537506 8.52459772 -36 9 C-36.33 8.34 -36.66 7.68 -37 7 C-29.7207836 3.04269064 -22.73762036 2.02510901 -14.5625 1.25 C-12.78842773 1.06244141 -12.78842773 1.06244141 -10.97851562 0.87109375 C-2.61697287 0 -2.61697287 0 0 0 Z " fill="#F8F7F9" transform="translate(92,13)"/>
<path d="M0 0 C-0.33 0.33 -0.66 0.66 -1 1 C1.97 1.495 1.97 1.495 5 2 C5 2.33 5 2.66 5 3 C1.27349728 3.70249703 -2.45649815 4.3843395 -6.1875 5.0625 C-7.24259766 5.26166016 -8.29769531 5.46082031 -9.38476562 5.66601562 C-10.91713867 5.94155273 -10.91713867 5.94155273 -12.48046875 6.22265625 C-13.41785889 6.39547119 -14.35524902 6.56828613 -15.32104492 6.74633789 C-18.12200901 7.01155266 -20.28613349 6.69084151 -23 6 C-20.27589111 2.31132337 -16.28922583 1.74897549 -12.0625 0.75 C-11.34642578 0.564375 -10.63035156 0.37875 -9.89257812 0.1875 C-6.20475561 -0.71480319 -3.62007238 -1.11263473 0 0 Z " fill="#32067A" transform="translate(67,21)"/>
<path d="M0 0 C2.0622048 -0.054348 4.12482816 -0.09294961 6.1875 -0.125 C7.33605469 -0.14820312 8.48460938 -0.17140625 9.66796875 -0.1953125 C12.91740372 -0.00484152 15.08660521 0.60639873 18 2 C17 5 17 5 15 6 C12.3276379 6.13415472 9.67749512 6.04318541 7 6 C6.67 5.01 6.34 4.02 6 3 C4.35 3 2.7 3 1 3 C0.67 2.01 0.34 1.02 0 0 Z " fill="#661FD2" transform="translate(78,18)"/>
<path d="M0 0 C0.9796875 -0.00257813 1.959375 -0.00515625 2.96875 -0.0078125 C5.5 0.125 5.5 0.125 7.5 1.125 C7.5 2.115 7.5 3.105 7.5 4.125 C5.75093341 4.32101608 4.00068154 4.50647403 2.25 4.6875 C1.27546875 4.79191406 0.3009375 4.89632813 -0.703125 5.00390625 C-3.2631352 5.11474468 -5.08148159 4.90238092 -7.5 4.125 C-7.5 3.135 -7.5 2.145 -7.5 1.125 C-4.89080172 -0.17959914 -2.91057385 -0.0076594 0 0 Z " fill="#FAF9FB" transform="translate(75.5,6.875)"/>
<path d="M0 0 C0.33 0.66 0.66 1.32 1 2 C4.02934491 2.65772428 4.02934491 2.65772428 7 3 C7 3.33 7 3.66 7 4 C0.88019467 5.40454548 -4.71739294 6.23268915 -11 6 C-11 5.34 -11 4.68 -11 4 C-9.5437455 3.32880451 -8.08492133 2.66318193 -6.625 2 C-5.81289063 1.62875 -5.00078125 1.2575 -4.1640625 0.875 C-2 0 -2 0 0 0 Z " fill="#380981" transform="translate(57,13)"/>
<path d="M0 0 C0 0.66 0 1.32 0 2 C-2.98997825 3.49498913 -5.70042775 3.11577446 -9 3 C-9.99 2.67 -10.98 2.34 -12 2 C-12 1.34 -12 0.68 -12 0 C-7.66726186 -0.92844389 -4.33273814 -0.92844389 0 0 Z " fill="#CEBCDF" transform="translate(105,3)"/>
<path d="M0 0 C-0.99 0.33 -1.98 0.66 -3 1 C-3 1.66 -3 2.32 -3 3 C-0.69 3 1.62 3 4 3 C4 3.33 4 3.66 4 4 C0.04 4 -3.92 4 -8 4 C-8.33 3.34 -8.66 2.68 -9 2 C-5.86501708 0.14223235 -3.62528568 -0.20140476 0 0 Z " fill="#480FA2" transform="translate(74,19)"/>
<path d="M0 0 C-0.33 0.33 -0.66 0.66 -1 1 C1.64 1.33 4.28 1.66 7 2 C7 2.33 7 2.66 7 3 C2.71 3 -1.58 3 -6 3 C-6.33 2.01 -6.66 1.02 -7 0 C-3.98968256 -0.93423645 -3.13349732 -1.04449911 0 0 Z " fill="#5212B6" transform="translate(64,13)"/>
<path d="M0 0 C0.33 0.66 0.66 1.32 1 2 C3.64 2 6.28 2 9 2 C5.09971775 4.60018816 1.52565431 4.15085514 -3 4 C-2.67 3.01 -2.34 2.02 -2 1 C-1.34 0.67 -0.68 0.34 0 0 Z " fill="#4E1BA9" transform="translate(82,22)"/>
<path d="M0 0 C0.598125 0.20625 1.19625 0.4125 1.8125 0.625 C1.4825 0.955 1.1525 1.285 0.8125 1.625 C3.7825 2.12 3.7825 2.12 6.8125 2.625 C6.8125 2.955 6.8125 3.285 6.8125 3.625 C3.1825 3.625 -0.4475 3.625 -4.1875 3.625 C-4.5175 2.965 -4.8475 2.305 -5.1875 1.625 C-2.1875 -0.375 -2.1875 -0.375 0 0 Z " fill="#39088B" transform="translate(65.1875,20.375)"/>
<path d="M0 0 C2.31 0.33 4.62 0.66 7 1 C7 1.99 7 2.98 7 4 C6.01 4.33 5.02 4.66 4 5 C4 4.34 4 3.68 4 3 C2.35 2.67 0.7 2.34 -1 2 C-0.67 1.34 -0.34 0.68 0 0 Z " fill="#7022E6" transform="translate(87,18)"/>
<path d="M0 0 C0.33 0.66 0.66 1.32 1 2 C4.02934491 2.65772428 4.02934491 2.65772428 7 3 C7 3.33 7 3.66 7 4 C3.7 4 0.4 4 -3 4 C-3.33 3.01 -3.66 2.02 -4 1 C-2 0 -2 0 0 0 Z " fill="#410D94" transform="translate(57,13)"/>
<path d="M0 0 C6.75 0.875 6.75 0.875 9 2 C9 2.66 9 3.32 9 4 C5.625 3.6875 5.625 3.6875 2 3 C1.34 2.01 0.68 1.02 0 0 Z " fill="#863EF3" transform="translate(75,11)"/>
</svg>
