<?xml version="1.0" encoding="UTF-8"?>
<svg version="1.1" xmlns="http://www.w3.org/2000/svg" width="1280" height="1024">
<path d="M0 0 C422.4 0 844.8 0 1280 0 C1280 337.92 1280 675.84 1280 1024 C857.6 1024 435.2 1024 0 1024 C0 686.08 0 348.16 0 0 Z " fill="#110227" transform="translate(0,0)"/>
<path d="M0 0 C15.54195277 13.26752066 24.39537986 31.91222144 27.375 51.9375 C28.32977387 66.94522824 27.89161469 81.54317013 23.375 95.9375 C23.16601074 96.60894043 22.95702148 97.28038086 22.74169922 97.97216797 C10.37343496 136.37400719 -22.92114542 180.67179592 -58.625 199.9375 C-68.54852047 204.28537616 -80.28001393 209.09470823 -91.11328125 204.99609375 C-96.65242342 201.66843583 -100.85911897 197.26524035 -102.625 190.9375 C-102.96148535 184.90176885 -102.13677207 180.28303457 -100.12109375 174.6171875 C-99.85389023 173.842612 -99.58668671 173.0680365 -99.31138611 172.26998901 C-96.46712712 164.19408666 -93.13389288 156.33165148 -89.73220825 148.47802734 C-82.54548714 131.87216384 -82.54548714 131.87216384 -76.1875 114.9375 C-75.92396729 114.18098145 -75.66043457 113.42446289 -75.38891602 112.64501953 C-72.40946667 103.74942873 -70.79044525 93.44116424 -73.8125 84.375 C-76.57383523 80.66148021 -79.2244455 78.4043515 -83.625 76.9375 C-109.68228461 73.60292976 -135.68701565 96.24373146 -155.625 109.9375 C-156.40858887 110.47375 -157.19217773 111.01 -157.99951172 111.5625 C-169.40371335 119.39476189 -180.37886898 127.77039507 -191.34863281 136.19580078 C-194.15302636 138.34150472 -196.97917473 140.45516527 -199.8125 142.5625 C-206.35656261 147.45184963 -212.78504658 152.48866784 -219.2265625 157.51171875 C-226.0160713 162.8049614 -232.84947969 168.04068135 -239.6796875 173.28125 C-240.71351563 174.0753125 -241.74734375 174.869375 -242.8125 175.6875 C-243.34061279 176.09291016 -243.86872559 176.49832031 -244.4128418 176.91601562 C-247.54597262 179.32519107 -250.66653966 181.74955237 -253.77734375 184.1875 C-263.82349618 192.05478126 -273.98960467 199.7303225 -284.30322266 207.24365234 C-286.53372651 208.87091162 -288.75754863 210.50693476 -290.98046875 212.14453125 C-307.93278059 224.57673735 -325.35836037 236.51110754 -343.625 246.9375 C-344.768479 247.60023926 -344.768479 247.60023926 -345.93505859 248.27636719 C-379.05376383 267.4116191 -379.05376383 267.4116191 -392.5625 264.25 C-396.00235716 262.06099999 -397.34962445 259.76362665 -398.625 255.9375 C-401.98166776 225.34229875 -375.10867199 195.32108861 -357.625 172.9375 C-354.86360922 169.51489384 -352.01991597 166.16789558 -349.13671875 162.84765625 C-346.73779885 160.06819229 -344.42486101 157.23659697 -342.125 154.375 C-338.06674232 149.38581582 -333.77984434 144.66079385 -329.3984375 139.95703125 C-327.42274668 137.83238523 -325.52951967 135.65388357 -323.6484375 133.4453125 C-318.60969278 127.66630099 -313.15765102 122.28413521 -307.73828125 116.86547852 C-305.88771033 115.01272532 -304.04529924 113.15211294 -302.203125 111.29101562 C-296.01278635 105.07234472 -289.78458884 99.17343756 -282.87207031 93.75366211 C-280.80731739 92.08485539 -278.96115688 90.35113917 -277.125 88.4375 C-273.50714452 84.69012702 -269.49189354 81.51114263 -265.4375 78.25 C-262.81534106 76.09400265 -260.30891432 73.86182897 -257.8125 71.5625 C-252.2559913 66.50634042 -246.36520183 61.93657003 -240.42626953 57.34472656 C-238.67311517 55.97508957 -236.94138906 54.58266137 -235.21484375 53.1796875 C-213.48313949 35.59331914 -188.49403215 22.49117093 -163.625 9.9375 C-162.60325684 9.42123047 -161.58151367 8.90496094 -160.52880859 8.37304688 C-113.33262548 -15.30205477 -46.52848273 -36.55809357 0 0 Z " fill="#5213B0" transform="translate(783.625,658.0625)"/>
<path d="M0 0 C7.68673394 4.30338386 11.31935696 11.64834496 13.9609375 19.7578125 C20.64082817 45.94410661 8.89544613 72.94105772 -3.16064453 95.79443359 C-4.63535794 98.61919628 -6.06930005 101.46325528 -7.50390625 104.30859375 C-18.3907529 125.78078592 -30.24291001 146.69914946 -44.4140625 166.1953125 C-44.89439941 166.85821289 -45.37473633 167.52111328 -45.86962891 168.20410156 C-56.16963861 182.34609863 -67.39011216 195.49650361 -79.4140625 208.1953125 C-80.47753906 209.32259766 -80.47753906 209.32259766 -81.5625 210.47265625 C-86.79267061 215.86293412 -92.52844482 220.54102799 -98.4140625 225.1953125 C-99.91453125 226.40380859 -99.91453125 226.40380859 -101.4453125 227.63671875 C-129.55683414 250.02825634 -162.34155425 262.82490368 -196.4140625 273.1953125 C-197.22633301 273.44265137 -198.03860352 273.68999023 -198.87548828 273.94482422 C-211.10008726 277.64308878 -223.42028426 281.01803543 -235.7421875 284.375 C-240.30698364 285.62227943 -244.86179392 286.90313678 -249.4140625 288.1953125 C-250.30254883 288.44506836 -251.19103516 288.69482422 -252.10644531 288.95214844 C-299.52864424 302.39090547 -336.07489156 328.94238019 -371.47851562 362.37304688 C-373.47608899 364.25370878 -375.48287335 366.12407871 -377.4921875 367.9921875 C-383.18580004 373.29343983 -388.86384409 378.58206409 -394.29101562 384.15771484 C-402.78399519 392.87492235 -412.79764194 401.87624171 -425.4765625 402.8828125 C-430.49798057 402.65598832 -433.30257004 400.76308063 -436.78515625 397.23828125 C-442.02767477 390.66313212 -442.22708666 383.34446166 -441.4140625 375.1953125 C-436.44911927 345.07465693 -419.03852943 312.82817802 -401.4140625 288.1953125 C-400.6398999 287.10984131 -400.6398999 287.10984131 -399.85009766 286.00244141 C-393.12695055 276.62117345 -386.33599381 267.59833276 -378.4140625 259.1953125 C-377.30592466 257.88616361 -376.20166316 256.57372238 -375.1015625 255.2578125 C-362.53611158 240.90142375 -346.76970315 229.7882241 -330.4140625 220.1953125 C-329.78113281 219.82051758 -329.14820313 219.44572266 -328.49609375 219.05957031 C-310.88830398 208.77625804 -291.13285677 201.39046946 -271.56005859 195.80957031 C-269.03402247 195.08653199 -266.51527024 194.34033361 -263.99609375 193.59375 C-254.88505948 190.90399036 -245.75915841 188.2805642 -236.59716797 185.76977539 C-164.84815546 166.02271628 -116.55349351 140.60509715 -76.4140625 76.1953125 C-75.13681371 74.14968029 -73.85946848 72.10410829 -72.58203125 70.05859375 C-71.94483154 69.03789795 -71.30763184 68.01720215 -70.65112305 66.96557617 C-70.01601807 65.94826416 -69.38091309 64.93095215 -68.7265625 63.8828125 C-68.09596924 62.87259033 -67.46537598 61.86236816 -66.81567383 60.8215332 C-23.8461802 -7.94872673 -23.8461802 -7.94872673 0 0 Z " fill="#661CD4" transform="translate(842.4140625,233.8046875)"/>
<path d="M0 0 C1.12932568 3.64259955 0.59250406 5.94931334 -0.42089844 9.6171875 C-1.06808026 12.28012789 -1.44202816 14.90671538 -1.7890625 17.625 C-5.9583743 49.90034854 -17.54023688 78.82129618 -39.92578125 102.76953125 C-41.82480087 104.81160319 -43.59837655 106.91451582 -45.375 109.0625 C-49.71015745 114.02550784 -54.82090776 117.95795076 -60 122 C-60.87011719 122.72058594 -61.74023438 123.44117188 -62.63671875 124.18359375 C-82.40278639 140.00208725 -106.97282156 147.9624748 -130.83602905 155.33087158 C-161.06282255 164.49119662 -161.06282255 164.49119662 -190 177 C-190.89219238 177.44279297 -191.78438477 177.88558594 -192.70361328 178.34179688 C-221.36615343 192.59729186 -249.03569415 209.87310158 -272.546875 231.734375 C-274.69558551 233.71885286 -276.88880045 235.61595786 -279.125 237.5 C-286.35140656 243.79348932 -292.45291811 251.21233209 -298 259 C-299.51777002 254.10894442 -298.385326 249.8202431 -297.5 244.875 C-297.32057861 243.86598633 -297.14115723 242.85697266 -296.95629883 241.81738281 C-287.69048705 192.05894362 -266.56888468 139.26755388 -223.80957031 109.18457031 C-218.9010255 105.97136747 -213.59123338 103.54996681 -208.28125 101.08496094 C-205.80728831 99.90834645 -203.37254732 98.66917537 -200.9375 97.4140625 C-180.32989794 86.79934001 -159.13863264 78.43860889 -137.13870239 71.18222046 C-117.50949798 64.69619152 -98.061824 58.01937005 -79 50 C-77.75099799 49.48067658 -76.50180311 48.96181686 -75.25244141 48.44335938 C-47.86289334 37.05123327 -18.52315224 24.32825498 0 0 Z " fill="#FDFDFD" transform="translate(778,469)"/>
<path d="M0 0 C0.92296875 0.42410156 1.8459375 0.84820312 2.796875 1.28515625 C17.58863488 8.61974437 28.43004246 21.52069939 34 37 C35.69602149 42.74038042 36.32708967 47.84190487 36.25 53.8125 C36.24033203 54.6051123 36.23066406 55.39772461 36.22070312 56.21435547 C35.87580791 73.10387393 29.97581422 87.49761455 17.84765625 99.4453125 C3.12325776 112.65485518 -13.26978552 115.8209757 -32.33789062 115.17919922 C-37.9556107 114.80104381 -42.85132549 113.2914824 -48 111 C-48.93714844 110.5875 -49.87429688 110.175 -50.83984375 109.75 C-64.54715299 102.98285715 -75.22485639 91.45825185 -80.27783203 77.00854492 C-81.25783668 74.02464475 -82.15308034 71.02419382 -83 68 C-83.20367188 67.34128906 -83.40734375 66.68257813 -83.6171875 66.00390625 C-86.40515393 51.40975546 -82.8609438 35.64640861 -75.24609375 23.11328125 C-66.76756593 10.83226216 -56.48141192 3.79932833 -43 -2 C-42.10023438 -2.39574219 -41.20046875 -2.79148437 -40.2734375 -3.19921875 C-27.9355047 -6.21744813 -11.38136358 -5.74436747 0 0 Z " fill="#FDFDFE" transform="translate(668,266)"/>
<path d="M0 0 C5.48414582 5.48414582 4.1809768 16.22141351 4.1875 23.5 C4.1887085 24.82717041 4.1887085 24.82717041 4.18994141 26.18115234 C4.13438904 32.59683287 4.13438904 32.59683287 3 36 C8.61 36 14.22 36 20 36 C-6.25 57 -6.25 57 -10 57 C-9.66154053 57.98395752 -9.32308105 58.96791504 -8.97436523 59.98168945 C-7.72225661 63.62949944 -6.48202504 67.2812542 -5.24536133 70.93432617 C-4.70823655 72.51550856 -4.16788719 74.09559934 -3.62426758 75.67456055 C-2.84388585 77.94301263 -2.07514617 80.21512457 -1.30859375 82.48828125 C-1.06282089 83.19463211 -0.81704803 83.90098297 -0.56382751 84.6287384 C1.11387171 89.65838488 1.11387171 89.65838488 0 93 C-1.4228219 91.98369864 -2.8455396 90.96725118 -4.26782227 89.95019531 C-5.51660212 89.05912432 -6.76712382 88.17048988 -8.01928711 87.28417969 C-11.34775 84.92293043 -14.63699605 82.5283527 -17.87109375 80.0390625 C-18.49032715 79.57161621 -19.10956055 79.10416992 -19.74755859 78.62255859 C-20.94001202 77.72075967 -22.12184256 76.80470582 -23.29150391 75.87353516 C-25.10228453 74.45661886 -25.10228453 74.45661886 -28 73 C-32.85982796 73.75492473 -36.98495428 77.79742475 -40.8125 80.75 C-42.17317708 81.78645833 -43.53385417 82.82291667 -44.89453125 83.859375 C-47.0104588 85.47489711 -49.12211361 87.09490278 -51.22412109 88.72851562 C-51.93777832 89.27701172 -52.65143555 89.82550781 -53.38671875 90.390625 C-54.03213623 90.89110352 -54.67755371 91.39158203 -55.3425293 91.90722656 C-57 93 -57 93 -59 93 C-57.47536437 85.50387484 -55.31993846 78.28640866 -53 71 C-59.65538898 74.98079341 -65.60063498 79.13839898 -71.22265625 84.49609375 C-73 86 -73 86 -75 86 C-74.81315819 76.28422592 -69.56245746 68.30166451 -62.875 61.5 C-60.04957568 58.82698446 -57.05280787 56.40844358 -54 54 C-54.51908936 53.63237549 -55.03817871 53.26475098 -55.57299805 52.88598633 C-57.94803834 51.19974746 -60.31777749 49.50620298 -62.6875 47.8125 C-63.50412109 47.23435547 -64.32074219 46.65621094 -65.16210938 46.06054688 C-65.95810547 45.49013672 -66.75410156 44.91972656 -67.57421875 44.33203125 C-68.30213623 43.81358643 -69.03005371 43.2951416 -69.7800293 42.76098633 C-72.36313274 40.71194584 -74.66858516 38.33141484 -77 36 C-65.12 35.67 -53.24 35.34 -41 35 C-35.555 18.17 -35.555 18.17 -30 1 C-29.34 1 -28.68 1 -28 1 C-23.05 16.345 -23.05 16.345 -18 32 C-8.09477496 23.50980711 -1.24002348 14.95635423 -0.11328125 1.72265625 C-0.07589844 1.15417969 -0.03851562 0.58570312 0 0 Z " fill="#5A18BD" transform="translate(875,101)"/>
<path d="M0 0 C5.94 0 11.88 0 18 0 C-8.25 21 -8.25 21 -12 21 C-11.66154053 21.98395752 -11.32308105 22.96791504 -10.97436523 23.98168945 C-9.72225661 27.62949944 -8.48202504 31.2812542 -7.24536133 34.93432617 C-6.70823655 36.51550856 -6.16788719 38.09559934 -5.62426758 39.67456055 C-4.84388585 41.94301263 -4.07514617 44.21512457 -3.30859375 46.48828125 C-3.06282089 47.19463211 -2.81704803 47.90098297 -2.56382751 48.6287384 C-0.88612829 53.65838488 -0.88612829 53.65838488 -2 57 C-3.4228219 55.98369864 -4.8455396 54.96725118 -6.26782227 53.95019531 C-7.51660212 53.05912432 -8.76712382 52.17048988 -10.01928711 51.28417969 C-13.34775 48.92293043 -16.63699605 46.5283527 -19.87109375 44.0390625 C-20.49032715 43.57161621 -21.10956055 43.10416992 -21.74755859 42.62255859 C-22.94001202 41.72075967 -24.12184256 40.80470582 -25.29150391 39.87353516 C-27.10228453 38.45661886 -27.10228453 38.45661886 -30 37 C-34.85982796 37.75492473 -38.98495428 41.79742475 -42.8125 44.75 C-44.17317708 45.78645833 -45.53385417 46.82291667 -46.89453125 47.859375 C-49.0104588 49.47489711 -51.12211361 51.09490278 -53.22412109 52.72851562 C-53.93777832 53.27701172 -54.65143555 53.82550781 -55.38671875 54.390625 C-56.03213623 54.89110352 -56.67755371 55.39158203 -57.3425293 55.90722656 C-59 57 -59 57 -61 57 C-60.42346985 53.96011377 -59.7461491 51.00072933 -59 48 C-58.75121094 46.8553125 -58.50242187 45.710625 -58.24609375 44.53125 C-56.85137518 39.41181243 -55.62687596 35.33423669 -51.4375 31.8984375 C-47.71585971 29.97376568 -43.91910997 28.45810949 -40 27 C-36.82093346 25.76218433 -33.64715408 24.51178764 -30.47558594 23.25488281 C-28.28533657 22.39372094 -26.08819647 21.54983107 -23.88378906 20.72558594 C-14.80999527 17.24744005 -7.74042101 12.93528787 -2 5 C-1.34 3.35 -0.68 1.7 0 0 Z " fill="#F8F7F9" transform="translate(877,137)"/>
<path d="M0 0 C0.66 0 1.32 0 2 0 C3.45385854 4.35625432 4.89600226 8.71614526 6.32739258 13.07983398 C6.81604496 14.56396751 7.30789058 16.0470536 7.80297852 17.52905273 C8.51378638 19.65862454 9.21305093 21.79169077 9.91015625 23.92578125 C10.13405533 24.58838455 10.35795441 25.25098785 10.58863831 25.93367004 C12.11387171 30.65838488 12.11387171 30.65838488 11 34 C8.50601152 35.65866701 6.04209517 37.15984429 3.4375 38.625 C2.68114258 39.05651367 1.92478516 39.48802734 1.14550781 39.93261719 C-0.43852052 40.83542785 -2.02433525 41.73511054 -3.61181641 42.63183594 C-5.93431992 43.96237261 -8.22476545 45.33599032 -10.51171875 46.7265625 C-11.92429879 47.56801122 -13.33705215 48.40916906 -14.75 49.25 C-15.40427979 49.65686035 -16.05855957 50.0637207 -16.73266602 50.48291016 C-19.45966813 52.07434134 -21.26615335 53.11938175 -24.44921875 52.6015625 C-28.13300489 50.28861868 -31.60784617 47.76586278 -35.0625 45.125 C-35.76955078 44.59519531 -36.47660156 44.06539062 -37.20507812 43.51953125 C-40.76754906 40.82342648 -43.81034415 38.18965585 -47 35 C-35.12 34.67 -23.24 34.34 -11 34 C-5.555 17.17 -5.555 17.17 0 0 Z " fill="#F8F8F9" transform="translate(845,102)"/>
<path d="M0 0 C0.66 0.33 1.32 0.66 2 1 C-0.11905463 3.17277714 -2.24472878 5.33826908 -4.375 7.5 C-4.97828125 8.12003906 -5.5815625 8.74007812 -6.203125 9.37890625 C-6.78320312 9.96542969 -7.36328125 10.55195313 -7.9609375 11.15625 C-8.49509277 11.70087891 -9.02924805 12.24550781 -9.57958984 12.80664062 C-11 14 -11 14 -13 14 C-13 12.02 -13 10.04 -13 8 C-12.67 8.66 -12.34 9.32 -12 10 C-10.18696196 8.52149287 -8.37458402 7.04217625 -6.5625 5.5625 C-5.55316406 4.73878906 -4.54382813 3.91507813 -3.50390625 3.06640625 C-1.70216039 1.58798996 -1.70216039 1.58798996 0 0 Z " fill="#21044C" transform="translate(812,177)"/>
</svg>
