<?xml version="1.0" encoding="UTF-8"?>
<svg version="1.1" xmlns="http://www.w3.org/2000/svg" width="500" height="500">
<path d="M0 0 C165 0 330 0 500 0 C500 165 500 330 500 500 C335 500 170 500 0 500 C0 335 0 170 0 0 Z " fill="#FEFEFE" transform="translate(0,0)"/>
<path d="M0 0 C3.64197634 3.31324689 5.81779862 6.63488589 6.203125 11.63671875 C6.38884733 23.72414709 3.14033812 30.06948254 -5 39 C-12.16670487 45.90178776 -12.16670487 45.90178776 -17.5 46.1875 C-21 46 -21 46 -23 44 C-22.87114445 38.07264483 -20.52870913 33.28993668 -18.05859375 27.96484375 C-16.92213395 24.78191759 -16.80570419 22.35284826 -17 19 C-22.69819082 18.55280021 -26.04226671 19.67072116 -30.625 22.875 C-31.22691162 23.27920166 -31.82882324 23.68340332 -32.44897461 24.09985352 C-38.8442403 28.45338319 -44.93755154 33.19948542 -51 38 C-79.41290901 60.49859685 -79.41290901 60.49859685 -86.875 59.6875 C-87.57625 59.460625 -88.2775 59.23375 -89 59 C-90.02358657 52.51728504 -86.55445035 48.08474208 -83 43 C-72.64469052 28.90343926 -59.96329901 16.1588224 -45 7 C-44.38914551 6.62520508 -43.77829102 6.25041016 -43.14892578 5.86425781 C-30.16249681 -1.93228419 -14.12212998 -8.79606953 0 0 Z " fill="#5418B1" transform="translate(113,235)"/>
<path d="M0 0 C2.66072535 0.20467118 4.50940676 0.71241086 6.8125 2.0625 C8.81338966 5.32710945 8.60673164 8.35961018 8 12 C2.91672256 28.74780296 -9.39922279 48.25242135 -25 57 C-31.36680125 59.98443809 -37.94550182 62.02991488 -44.7265625 63.82055664 C-57.7855683 67.26956455 -67.41957542 71.90646473 -77.16796875 81.29296875 C-79.70894393 83.72179054 -82.27825455 86.02716698 -85 88.25 C-85.680625 88.81203125 -86.36125 89.3740625 -87.0625 89.953125 C-89 91 -89 91 -91.1875 90.734375 C-93 90 -93 90 -94 89 C-94.46696584 82.80085933 -93.54749081 78.72134583 -90.6875 73.25 C-90.33284668 72.56115723 -89.97819336 71.87231445 -89.61279297 71.16259766 C-78.67153474 50.93415579 -61.08193402 45.27242176 -40.25390625 38.84375 C-34.91746956 37.15784389 -30.34425858 35.33354648 -25.71875 32.1484375 C-24 31 -24 31 -21.90625 30.1015625 C-19.46867941 28.69296638 -19.13180218 27.56512695 -18 25 C-16.62607091 22.75302433 -15.23669672 20.52705584 -13.8125 18.3125 C-13.21683228 17.3858252 -13.21683228 17.3858252 -12.60913086 16.44042969 C-8.83970831 10.64317714 -4.90337841 4.90337841 0 0 Z " fill="#6720D1" transform="translate(122,140)"/>
<path d="M0 0 C0.66 0 1.32 0 2 0 C2.49070632 5.39776952 2.49070632 5.39776952 0.3671875 8.00390625 C-2.31599037 10.26645392 -4.96081751 11.67537839 -8.125 13.1875 C-9.70667969 13.95126953 -9.70667969 13.95126953 -11.3203125 14.73046875 C-12.20460938 15.14941406 -13.08890625 15.56835938 -14 16 C-14.66 16.33 -15.32 16.66 -16 17 C-15.62153192 14.44945425 -15.27608129 13.25763195 -13.36328125 11.47265625 C-12.68652344 11.00730469 -12.00976562 10.54195312 -11.3125 10.0625 C-10.59578125 9.55332031 -9.8790625 9.04414062 -9.140625 8.51953125 C-8.43421875 8.01808594 -7.7278125 7.51664062 -7 7 C-2.931232 4.00017223 -2.931232 4.00017223 0 0 Z " fill="#582B9E" transform="translate(133,113)"/>
<path d="M0 0 C2.41638733 2.41638733 2 2.80341913 2 6 C1.29875 6.53625 0.5975 7.0725 -0.125 7.625 C-2.61783973 9.68430239 -4.04053924 11.29097463 -5.875 13.875 C-9.51895284 18.92192177 -13.84356446 22.56237631 -19 26 C-21.1875 25.625 -21.1875 25.625 -23 25 C-21.75146327 24.20602761 -20.50109957 23.41492783 -19.25 22.625 C-18.55390625 22.18414062 -17.8578125 21.74328125 -17.140625 21.2890625 C-15 20 -15 20 -12.859375 19.0859375 C-10.45639244 17.68251491 -10.1330852 16.53879239 -9 14 C-7.51126469 11.54951533 -5.93823839 9.15347903 -4.375 6.75 C-3.95476562 6.1003125 -3.53453125 5.450625 -3.1015625 4.78125 C-2.06954327 3.18631119 -1.03501972 1.59299331 0 0 Z " fill="#8645EB" transform="translate(113,151)"/>
<path d="M0 0 C3.94021739 1.6590389 3.94021739 1.6590389 5.375 4 C5.62213438 6.71847813 5.50979526 9.2591631 5.375 12 C5.045 12 4.715 12 4.375 12 C4.045 9.69 3.715 7.38 3.375 5 C1.395 4.34 -0.585 3.68 -2.625 3 C-3.615 4.485 -3.615 4.485 -4.625 6 C-5.285 6 -5.945 6 -6.625 6 C-6.955 7.32 -7.285 8.64 -7.625 10 C-8.285 10 -8.945 10 -9.625 10 C-8.11284702 5.18860415 -5.58820246 0 0 0 Z " fill="#8A4FE8" transform="translate(124.625,140)"/>
<path d="M0 0 C0.66 0.66 1.32 1.32 2 2 C0.92685547 2.33644531 0.92685547 2.33644531 -0.16796875 2.6796875 C-3.63511526 4.29609511 -5.6673601 6.3740545 -8.3125 9.125 C-9.19550781 10.03507812 -10.07851563 10.94515625 -10.98828125 11.8828125 C-11.65214844 12.58148438 -12.31601562 13.28015625 -13 14 C-13 11 -13 11 -10.91796875 8.5546875 C-10.01691406 7.67039062 -9.11585937 6.78609375 -8.1875 5.875 C-7.29417969 4.98554688 -6.40085937 4.09609375 -5.48046875 3.1796875 C-3 1 -3 1 0 0 Z " fill="#401386" transform="translate(52,256)"/>
<path d="M0 0 C-1.98 0.99 -1.98 0.99 -4 2 C-4.99 1.34 -5.98 0.68 -7 0 C-9.28648848 -0.24107326 -9.28648848 -0.24107326 -11.6875 -0.125 C-12.89986328 -0.09792969 -12.89986328 -0.09792969 -14.13671875 -0.0703125 C-14.75160156 -0.04710937 -15.36648437 -0.02390625 -16 0 C-16 0.66 -16 1.32 -16 2 C-16.66 2 -17.32 2 -18 2 C-18 1.34 -18 0.68 -18 0 C-18.66 -0.33 -19.32 -0.66 -20 -1 C-12.86170305 -2.42765939 -6.84347892 -2.73739157 0 0 Z " fill="#834ADD" transform="translate(110,233)"/>
<path d="M0 0 C0.66 0 1.32 0 2 0 C2.125 2.875 2.125 2.875 2 6 C1.34 6.66 0.68 7.32 0 8 C-0.66 7.34 -1.32 6.68 -2 6 C-2.99 6 -3.98 6 -5 6 C-3.38405168 3.95880212 -1.7143618 1.95927063 0 0 Z " fill="#8C5ADE" transform="translate(133,113)"/>
<path d="M0 0 C0.66 1.32 1.32 2.64 2 4 C0.02 4.66 -1.96 5.32 -4 6 C-4.33 4.68 -4.66 3.36 -5 2 C-3.35 1.34 -1.7 0.68 0 0 Z " fill="#6A29C9" transform="translate(131,118)"/>
<path d="M0 0 C2.41638733 2.41638733 2 2.80341913 2 6 C0.02 6.99 0.02 6.99 -2 8 C-1.125 1.125 -1.125 1.125 0 0 Z " fill="#8139EF" transform="translate(113,151)"/>
</svg>
