<?xml version="1.0" encoding="UTF-8"?>
<svg version="1.1" xmlns="http://www.w3.org/2000/svg" width="300" height="50">
<path d="M0 0 C99 0 198 0 300 0 C300 16.5 300 33 300 50 C201 50 102 50 0 50 C0 33.5 0 17 0 0 Z " fill="#5114AC" transform="translate(0,0)"/>
<path d="M0 0 C12.44657015 -0.3697001 12.44657015 -0.3697001 14.9296875 1.2890625 C16 3 16 3 15.8125 6.5625 C15 10 15 10 13 12 C13.474375 12.70125 13.94875 13.4025 14.4375 14.125 C16.08739857 17.16081337 16.60368464 19.59168786 17 23 C15.35 23 13.7 23 12 23 C11.01 20.03 10.02 17.06 9 14 C7.35 13.67 5.7 13.34 4 13 C4 16.3 4 19.6 4 23 C2.68 23 1.36 23 0 23 C0 15.41 0 7.82 0 0 Z " fill="#F6F3FA" transform="translate(278,21)"/>
<path d="M0 0 C1.98 0 3.96 0 6 0 C7.81896996 2.21439822 9.05036585 4.02082091 10.375 6.5 C10.72949219 7.12003906 11.08398438 7.74007813 11.44921875 8.37890625 C12.31961604 9.90798257 13.16255124 11.45263275 14 13 C14.33 8.71 14.66 4.42 15 0 C16.32 0 17.64 0 19 0 C19 7.26 19 14.52 19 22 C17.35 22 15.7 22 14 22 C12.2695849 19.85585564 11.00727825 17.99909825 9.6875 15.625 C9.32849609 15.02171875 8.96949219 14.4184375 8.59960938 13.796875 C6 9.34040179 6 9.34040179 6 7 C5.34 7 4.68 7 4 7 C4 12.28 4 17.56 4 23 C2.68 23 1.36 23 0 23 C0 15.41 0 7.82 0 0 Z " fill="#F9F8FC" transform="translate(188,21)"/>
<path d="M0 0 C2.31 0 4.62 0 7 0 C8.17430074 3.2681432 9.33811256 6.53992515 10.5 9.8125 C10.83386719 10.74126953 11.16773438 11.67003906 11.51171875 12.62695312 C11.82753906 13.51962891 12.14335937 14.41230469 12.46875 15.33203125 C12.76201172 16.15421143 13.05527344 16.9763916 13.35742188 17.82348633 C14 20 14 20 14 23 C12.35 23 10.7 23 9 23 C8.67 21.02 8.34 19.04 8 17 C5.03 17.33 2.06 17.66 -1 18 C-1.99 20.475 -1.99 20.475 -3 23 C-4.32 23 -5.64 23 -7 23 C-6.42389687 17.45044957 -4.97901452 12.73970503 -2.9375 7.5625 C-2.65583984 6.83095703 -2.37417969 6.09941406 -2.08398438 5.34570312 C-1.39586753 3.56126454 -0.69885394 1.78026095 0 0 Z " fill="#F0EBF8" transform="translate(163,21)"/>
<path d="M0 0 C1.65 0 3.3 0 5 0 C5.05401695 2.91691525 5.09368066 5.83282724 5.125 8.75 C5.15013672 9.9875 5.15013672 9.9875 5.17578125 11.25 C5.18222656 12.04921875 5.18867187 12.8484375 5.1953125 13.671875 C5.20578613 14.4050293 5.21625977 15.13818359 5.22705078 15.89355469 C4.9642643 18.33153504 4.26061306 19.90820728 3 22 C-0.05087827 24.34682943 -3.37063841 24.41444451 -7.09765625 24.32421875 C-10.06377883 23.81869888 -11.29399373 22.38840878 -13 20 C-14.25433458 16.23699626 -14.10695422 12.72789091 -14.0625 8.8125 C-14.05798828 8.06291016 -14.05347656 7.31332031 -14.04882812 6.54101562 C-14.03706354 4.69397617 -14.01912865 2.84697787 -14 1 C-12.35 1 -10.7 1 -9 1 C-8.93941406 2.21558594 -8.87882812 3.43117188 -8.81640625 4.68359375 C-8.73201668 6.26824228 -8.6473679 7.85287702 -8.5625 9.4375 C-8.52318359 10.23994141 -8.48386719 11.04238281 -8.44335938 11.86914062 C-8.5945704 15.75239561 -8.5945704 15.75239561 -7 19 C-4.5 19.16666667 -4.5 19.16666667 -2 19 C-0.48578999 17.48578999 -0.78690144 16.07527232 -0.68359375 13.96484375 C-0.64169922 13.15595703 -0.59980469 12.34707031 -0.55664062 11.51367188 C-0.49766602 10.2384668 -0.49766602 10.2384668 -0.4375 8.9375 C-0.39431641 8.08349609 -0.35113281 7.22949219 -0.30664062 6.34960938 C-0.20023298 4.23327963 -0.09958269 2.11666187 0 0 Z " fill="#ECE6F6" transform="translate(114,20)"/>
<path d="M0 0 C2.4375 1 2.4375 1 4 2 C3.67 3.32 3.34 4.64 3 6 C0.03 5.67 -2.94 5.34 -6 5 C-6 5.99 -6 6.98 -6 8 C-5.28972656 8.27714844 -4.57945313 8.55429687 -3.84765625 8.83984375 C-2.92855469 9.20207031 -2.00945313 9.56429688 -1.0625 9.9375 C-0.14597656 10.29714844 0.77054688 10.65679687 1.71484375 11.02734375 C4 12 4 12 5 13 C5.47094801 19.35779817 5.47094801 19.35779817 3.625 21.875 C0.03538709 24.36011663 -2.65639901 24.29448142 -7 24 C-9.9375 22.5 -9.9375 22.5 -12 21 C-11.67 19.68 -11.34 18.36 -11 17 C-7.125 17.875 -7.125 17.875 -6 19 C-4.33382885 19.04063832 -2.66611905 19.042721 -1 19 C-1 17.68 -1 16.36 -1 15 C-1.95712891 14.70996094 -1.95712891 14.70996094 -2.93359375 14.4140625 C-3.75988281 14.15367188 -4.58617187 13.89328125 -5.4375 13.625 C-6.26121094 13.36976562 -7.08492187 13.11453125 -7.93359375 12.8515625 C-10 12 -10 12 -11 10 C-11.57189542 3.70915033 -11.57189542 3.70915033 -9.4375 1.0625 C-6.11607355 -0.38530127 -3.58945551 -0.3204871 0 0 Z " fill="#F2EDF8" transform="translate(57,20)"/>
<path d="M0 0 C3.375 1.875 3.375 1.875 6 4 C6 4.66 6 5.32 6 6 C4.125 6.625 4.125 6.625 2 7 C1.34 6.34 0.68 5.68 0 5 C-3.56592619 5.16417032 -3.56592619 5.16417032 -7 6 C-8.5635348 9.12706959 -8.39958487 12.57982443 -8 16 C-7.34 16.99 -6.68 17.98 -6 19 C-3 19.5 -3 19.5 0 19 C0.66 18.01 1.32 17.02 2 16 C3.32 16.33 4.64 16.66 6 17 C4.55813953 21.56589147 4.55813953 21.56589147 2.3125 23.3125 C-0.98491604 24.29281288 -3.57543187 24.36048086 -7 24 C-9.75329021 22.20437595 -11.52627461 20.94745078 -13 18 C-14.08956854 7.46231567 -14.08956854 7.46231567 -10.625 2.8125 C-6.76206005 0.14523194 -4.7297092 -0.45477973 0 0 Z " fill="#F4F0F9" transform="translate(233,20)"/>
<path d="M0 0 C4.95 0 9.9 0 15 0 C15 0.99 15 1.98 15 3 C11.37 3 7.74 3 4 3 C4 4.98 4 6.96 4 9 C6.97 9 9.94 9 13 9 C13 9.99 13 10.98 13 12 C10.03 12 7.06 12 4 12 C4 14.31 4 16.62 4 19 C7.63 19 11.26 19 15 19 C15 19.99 15 20.98 15 22 C10.05 22 5.1 22 0 22 C0 14.74 0 7.48 0 0 Z " fill="#FEFEFE" transform="translate(251,21)"/>
<path d="M0 0 C0.66 0 1.32 0 2 0 C1.3880827 3.56951759 0.37175964 6.65633587 -1 10 C-1.12375 10.70125 -1.2475 11.4025 -1.375 12.125 C-2.58634684 15.75904051 -5.91076107 16.95181098 -9.125 18.6875 C-12 20 -12 20 -14 20 C-14 16.7 -14 13.4 -14 10 C-11.69 9.01 -9.38 8.02 -7 7 C-7.99 6.34 -8.98 5.68 -10 5 C-9.67 3.68 -9.34 2.36 -9 1 C-6.13275314 1.57344937 -5.1385485 1.8614515 -3 4 C-2.54625 3.34 -2.0925 2.68 -1.625 2 C-1.08875 1.34 -0.5525 0.68 0 0 Z " fill="#5D21BA" transform="translate(39,13)"/>
<path d="M0 0 C5.61 0 11.22 0 17 0 C17 1.32 17 2.64 17 4 C15.02 4 13.04 4 11 4 C11 10.27 11 16.54 11 23 C9.35 23 7.7 23 6 23 C6 16.73 6 10.46 6 4 C4.02 4 2.04 4 0 4 C0 2.68 0 1.36 0 0 Z " fill="#ECE5F6" transform="translate(72,21)"/>
<path d="M0 0 C1.65 0 3.3 0 5 0 C5 6.27 5 12.54 5 19 C8.3 19 11.6 19 15 19 C15 20.32 15 21.64 15 23 C10.05 23 5.1 23 0 23 C0 15.41 0 7.82 0 0 Z " fill="#ECE6F6" transform="translate(132,21)"/>
<path d="M0 0 C0.66 0 1.32 0 2 0 C1.55291464 5.06696738 -0.45459029 7.53516778 -4 11 C-6.8125 11.375 -6.8125 11.375 -9 11 C-9 10.01 -9 9.02 -9 8 C-8.34 7.67 -7.68 7.34 -7 7 C-7.99 6.34 -8.98 5.68 -10 5 C-9.67 3.68 -9.34 2.36 -9 1 C-6.13275314 1.57344937 -5.1385485 1.8614515 -3 4 C-2.54625 3.34 -2.0925 2.68 -1.625 2 C-1.08875 1.34 -0.5525 0.68 0 0 Z " fill="#7224E7" transform="translate(39,13)"/>
<path d="M0 0 C2.875 -0.125 2.875 -0.125 6 0 C6.66 0.66 7.32 1.32 8 2 C7.625 4.125 7.625 4.125 7 6 C4.69 6 2.38 6 0 6 C0 4.02 0 2.04 0 0 Z " fill="#622CB5" transform="translate(282,24)"/>
<path d="M0 0 C0.33 0.99 0.66 1.98 1 3 C-2.40219265 5.74792483 -6.48464588 9 -11 9 C-10.5625 6.75 -10.5625 6.75 -9 4 C-6.11656315 2.35006265 -3.11359044 1.14677508 0 0 Z " fill="#EDE7F5" transform="translate(36,24)"/>
<path d="M0 0 C0.99 0 1.98 0 3 0 C2.70460812 3.54470259 2.22373481 4.78215295 -0.375 7.3125 C-3 9 -3 9 -6 9 C-4.4705003 5.55862568 -2.54630448 2.7777867 0 0 Z " fill="#3C098B" transform="translate(26,34)"/>
<path d="M0 0 C1.65 0 3.3 0 5 0 C5.625 2.3125 5.625 2.3125 6 5 C5.01 6.485 5.01 6.485 4 8 C3.34 8 2.68 8 2 8 C2 6.35 2 4.7 2 3 C1.34 3 0.68 3 0 3 C0 2.01 0 1.02 0 0 Z " fill="#661CD5" transform="translate(33,31)"/>
<path d="M0 0 C2.5654594 2.5654594 2.54046087 4.47686668 3 8 C1.35 8 -0.3 8 -2 8 C-1.125 1.125 -1.125 1.125 0 0 Z " fill="#612AB4" transform="translate(166,26)"/>
<path d="M0 0 C1.98 0.495 1.98 0.495 4 1 C4 2.32 4 3.64 4 5 C2.35 4.67 0.7 4.34 -1 4 C-0.67 2.68 -0.34 1.36 0 0 Z " fill="#ECE6F5" transform="translate(30,14)"/>
</svg>
