<?xml version="1.0" encoding="utf-8" ?>
<svg baseProfile="full" height="1024" version="1.1" width="1280" xmlns="http://www.w3.org/2000/svg" xmlns:ev="http://www.w3.org/2001/xml-events" xmlns:xlink="http://www.w3.org/1999/xlink"><defs /><path d="M 313,782 L 313,784 L 310,787 L 306,787 L 311,787 L 313,785 L 313,783 L 314,782 L 324,782 L 325,783 L 325,784 L 326,785 L 326,786 L 327,787 L 333,787 L 328,787 L 326,785 L 326,784 L 325,783 L 325,782 Z" fill="none" stroke="black" stroke-width="1" /><path d="M 318,768 L 318,770 L 317,771 L 317,772 L 316,773 L 316,776 L 322,776 L 322,774 L 321,773 L 321,771 L 320,770 L 320,768 Z" fill="none" stroke="black" stroke-width="1" /><path d="M 1130,759 L 1130,787 L 1153,787 L 1153,782 L 1152,782 L 1151,781 L 1138,781 L 1137,780 L 1137,777 L 1138,776 L 1147,776 L 1148,775 L 1149,775 L 1149,770 L 1138,770 L 1137,769 L 1137,766 L 1139,764 L 1141,764 L 1142,765 L 1150,765 L 1151,764 L 1153,764 L 1153,759 Z" fill="none" stroke="black" stroke-width="1" /><path d="M 993,759 L 993,787 L 998,787 L 1000,785 L 1000,780 L 1001,779 L 1009,779 L 1010,778 L 1013,778 L 1014,777 L 1015,777 L 1016,776 L 1016,774 L 1017,773 L 1017,765 L 1016,764 L 1016,762 L 1014,760 L 1012,760 L 1011,759 Z" fill="none" stroke="black" stroke-width="1" /><path d="M 949,759 L 949,786 L 950,787 L 955,787 L 956,786 L 956,779 L 957,778 L 961,778 L 962,779 L 962,780 L 963,781 L 963,782 L 964,783 L 964,784 L 965,785 L 965,786 L 966,787 L 973,787 L 972,786 L 973,785 L 972,784 L 972,783 L 970,781 L 970,780 L 968,778 L 972,774 L 972,773 L 973,772 L 973,765 L 972,764 L 972,762 L 970,760 L 969,760 L 968,759 Z" fill="none" stroke="black" stroke-width="1" /><path d="M 903,759 L 903,760 L 902,761 L 902,774 L 903,775 L 903,780 L 904,781 L 904,783 L 906,785 L 907,785 L 908,786 L 910,786 L 911,787 L 921,787 L 922,786 L 924,786 L 925,785 L 926,785 L 927,784 L 927,783 L 928,782 L 928,781 L 929,780 L 929,777 L 930,776 L 930,761 L 929,760 L 929,759 L 923,759 L 923,775 L 922,776 L 922,779 L 921,780 L 920,780 L 918,782 L 915,782 L 914,781 L 912,781 L 911,780 L 911,779 L 910,778 L 910,777 L 909,776 L 909,775 L 910,774 L 910,771 L 909,770 L 910,769 L 909,768 L 909,766 L 910,765 L 909,764 L 909,759 Z" fill="none" stroke="black" stroke-width="1" /><path d="M 859,759 L 859,786 L 860,787 L 865,787 L 866,786 L 866,780 L 867,779 L 876,779 L 877,778 L 879,778 L 882,775 L 882,773 L 883,772 L 883,766 L 882,765 L 882,763 L 881,762 L 881,761 L 880,761 L 879,760 L 878,760 L 877,759 Z" fill="none" stroke="black" stroke-width="1" /><path d="M 747,759 L 747,760 L 746,761 L 746,762 L 747,763 L 746,764 L 748,764 L 749,765 L 754,765 L 755,766 L 755,785 L 756,786 L 756,787 L 762,787 L 762,766 L 763,765 L 764,765 L 765,764 L 766,765 L 769,765 L 770,764 L 771,764 L 771,759 Z" fill="none" stroke="black" stroke-width="1" /><path d="M 704,759 L 704,786 L 705,787 L 727,787 L 727,782 L 726,782 L 725,781 L 712,781 L 711,780 L 711,777 L 712,776 L 721,776 L 722,775 L 723,775 L 723,770 L 712,770 L 711,769 L 711,766 L 712,765 L 725,765 L 726,764 L 727,764 L 727,759 Z" fill="none" stroke="black" stroke-width="1" /><path d="M 662,759 L 662,787 L 684,787 L 684,783 L 685,782 L 682,782 L 681,781 L 670,781 L 669,780 L 669,777 L 670,776 L 679,776 L 681,774 L 681,772 L 680,771 L 680,770 L 670,770 L 668,768 L 669,767 L 669,765 L 670,764 L 672,764 L 673,765 L 680,765 L 681,764 L 682,765 L 683,764 L 685,764 L 685,761 L 684,760 L 684,759 Z" fill="none" stroke="black" stroke-width="1" /><path d="M 608,759 L 608,787 L 614,787 L 615,786 L 615,776 L 616,775 L 617,776 L 617,778 L 618,779 L 618,780 L 619,781 L 619,782 L 620,783 L 620,784 L 621,785 L 621,786 L 622,787 L 629,787 L 629,785 L 630,784 L 630,783 L 631,782 L 631,781 L 632,780 L 632,779 L 633,778 L 633,776 L 634,775 L 635,776 L 635,784 L 636,785 L 636,787 L 642,787 L 642,759 L 634,759 L 633,760 L 633,761 L 632,762 L 632,764 L 631,765 L 631,766 L 630,767 L 630,768 L 629,769 L 629,771 L 628,772 L 628,773 L 627,774 L 627,776 L 625,778 L 624,777 L 624,776 L 623,775 L 623,774 L 622,773 L 622,772 L 621,771 L 621,769 L 620,768 L 620,767 L 619,766 L 619,765 L 618,764 L 618,762 L 617,761 L 617,759 Z" fill="none" stroke="black" stroke-width="1" /><path d="M 537,759 L 537,761 L 539,763 L 539,764 L 541,766 L 541,767 L 542,768 L 542,769 L 544,771 L 544,772 L 546,774 L 546,775 L 547,776 L 547,785 L 548,786 L 548,787 L 554,787 L 554,776 L 556,774 L 556,773 L 558,771 L 558,770 L 559,769 L 559,768 L 561,766 L 561,765 L 562,764 L 562,763 L 564,761 L 564,759 L 557,759 L 557,760 L 555,762 L 555,763 L 554,764 L 554,765 L 552,767 L 552,769 L 552,768 L 554,766 L 554,765 L 555,764 L 555,763 L 557,761 L 557,760 L 558,759 L 563,759 L 564,760 L 562,762 L 562,763 L 561,764 L 561,765 L 559,767 L 559,768 L 558,769 L 558,770 L 556,772 L 556,773 L 554,775 L 554,786 L 553,787 L 549,787 L 547,785 L 547,775 L 546,774 L 546,773 L 544,771 L 544,770 L 542,768 L 542,767 L 541,766 L 541,765 L 539,763 L 539,762 L 537,760 L 538,759 L 543,759 L 545,761 L 545,762 L 547,764 L 547,765 L 548,766 L 548,767 L 550,769 L 550,768 L 548,766 L 548,765 L 547,764 L 547,763 L 545,761 L 545,760 L 544,759 Z" fill="none" stroke="black" stroke-width="1" /><path d="M 493,759 L 493,760 L 492,761 L 492,764 L 499,764 L 501,766 L 501,786 L 502,787 L 508,787 L 508,766 L 510,764 L 513,764 L 514,765 L 515,764 L 517,764 L 517,759 Z" fill="none" stroke="black" stroke-width="1" /><path d="M 466,759 L 466,787 L 472,787 L 473,786 L 473,759 Z" fill="none" stroke="black" stroke-width="1" /><path d="M 419,759 L 418,760 L 419,761 L 419,763 L 420,764 L 420,765 L 421,766 L 421,768 L 422,769 L 422,770 L 423,771 L 423,773 L 424,774 L 424,776 L 425,777 L 425,778 L 426,779 L 426,781 L 427,782 L 427,783 L 428,784 L 428,786 L 429,787 L 436,787 L 436,786 L 437,785 L 437,783 L 438,782 L 438,781 L 439,780 L 439,779 L 440,778 L 440,775 L 441,774 L 441,773 L 442,772 L 442,771 L 443,770 L 443,767 L 444,766 L 444,765 L 445,764 L 445,763 L 446,762 L 446,759 L 440,759 L 439,760 L 439,761 L 438,762 L 438,764 L 437,765 L 437,767 L 436,768 L 436,769 L 435,770 L 435,772 L 434,773 L 434,775 L 433,776 L 433,777 L 433,776 L 434,775 L 434,773 L 435,772 L 435,770 L 436,769 L 436,768 L 437,767 L 437,765 L 438,764 L 438,762 L 441,759 L 445,759 L 446,760 L 446,761 L 445,762 L 445,763 L 444,764 L 444,766 L 443,767 L 443,769 L 442,770 L 442,772 L 441,773 L 441,774 L 440,775 L 440,777 L 439,778 L 439,780 L 438,781 L 438,782 L 437,783 L 437,784 L 436,785 L 436,786 L 435,787 L 430,787 L 428,785 L 428,784 L 427,783 L 427,781 L 426,780 L 426,779 L 425,778 L 425,777 L 424,776 L 424,774 L 423,773 L 423,771 L 422,770 L 422,769 L 421,768 L 421,766 L 420,765 L 420,764 L 419,763 L 419,761 L 418,760 L 419,759 L 424,759 L 426,761 L 426,763 L 427,764 L 427,765 L 428,766 L 428,768 L 429,769 L 429,770 L 430,771 L 430,774 L 431,775 L 431,777 L 431,775 L 430,774 L 430,771 L 429,770 L 429,769 L 428,768 L 428,766 L 427,765 L 427,764 L 426,763 L 426,761 L 425,760 L 425,759 Z" fill="none" stroke="black" stroke-width="1" /><path d="M 392,759 L 392,782 L 391,783 L 391,785 L 392,786 L 392,787 L 398,787 L 398,769 L 399,768 L 399,761 L 398,760 L 398,759 Z" fill="none" stroke="black" stroke-width="1" /><path d="M 348,759 L 348,760 L 347,761 L 348,762 L 348,764 L 349,764 L 350,765 L 355,765 L 356,766 L 356,784 L 357,785 L 357,787 L 363,787 L 363,766 L 364,765 L 369,765 L 370,764 L 372,764 L 372,759 Z" fill="none" stroke="black" stroke-width="1" /><path d="M 315,759 L 315,760 L 314,761 L 314,763 L 313,764 L 313,766 L 312,767 L 312,769 L 311,770 L 311,771 L 310,772 L 310,774 L 309,775 L 309,777 L 308,778 L 308,779 L 307,780 L 307,782 L 306,783 L 306,784 L 305,785 L 306,784 L 306,783 L 307,782 L 307,780 L 308,779 L 308,778 L 309,777 L 309,775 L 310,774 L 310,772 L 311,771 L 311,770 L 312,769 L 312,767 L 313,766 L 313,764 L 314,763 L 314,761 L 316,759 L 322,759 L 323,760 L 323,761 L 324,762 L 324,763 L 325,764 L 325,766 L 326,767 L 326,768 L 327,769 L 327,771 L 328,772 L 328,774 L 329,775 L 329,776 L 330,777 L 330,779 L 331,780 L 331,782 L 332,783 L 332,785 L 332,783 L 331,782 L 331,780 L 330,779 L 330,777 L 329,776 L 329,775 L 328,774 L 328,772 L 327,771 L 327,769 L 326,768 L 326,767 L 325,766 L 325,764 L 324,763 L 324,762 L 323,761 L 323,759 Z" fill="none" stroke="black" stroke-width="1" /><path d="M 262,759 L 262,785 L 263,786 L 263,787 L 285,787 L 285,782 L 284,782 L 283,781 L 270,781 L 269,780 L 269,777 L 270,776 L 280,776 L 281,775 L 281,770 L 270,770 L 269,769 L 269,766 L 271,764 L 272,765 L 281,765 L 282,764 L 285,764 L 285,759 Z" fill="none" stroke="black" stroke-width="1" /><path d="M 219,759 L 219,760 L 218,761 L 218,786 L 219,787 L 225,787 L 225,779 L 226,778 L 230,778 L 231,779 L 231,780 L 232,781 L 232,782 L 233,783 L 233,784 L 235,786 L 235,787 L 242,787 L 242,785 L 241,784 L 241,783 L 240,782 L 240,781 L 238,779 L 238,777 L 239,776 L 240,776 L 241,775 L 241,773 L 242,772 L 242,764 L 241,763 L 241,762 L 239,760 L 237,760 L 236,759 Z" fill="none" stroke="black" stroke-width="1" /><path d="M 1095,758 L 1094,759 L 1091,759 L 1090,760 L 1088,760 L 1086,762 L 1086,764 L 1085,765 L 1085,770 L 1086,771 L 1086,773 L 1087,774 L 1089,774 L 1090,775 L 1092,775 L 1093,776 L 1102,776 L 1104,778 L 1104,779 L 1102,781 L 1101,781 L 1100,782 L 1095,782 L 1092,779 L 1092,778 L 1090,778 L 1089,777 L 1088,777 L 1087,778 L 1085,778 L 1085,780 L 1086,781 L 1086,783 L 1089,786 L 1091,786 L 1092,787 L 1096,787 L 1097,788 L 1098,788 L 1099,787 L 1104,787 L 1105,786 L 1107,786 L 1109,784 L 1109,783 L 1110,782 L 1110,779 L 1111,778 L 1111,777 L 1110,776 L 1110,774 L 1109,773 L 1109,772 L 1108,771 L 1104,771 L 1103,770 L 1094,770 L 1092,768 L 1092,766 L 1094,764 L 1100,764 L 1103,767 L 1103,768 L 1109,768 L 1109,763 L 1108,762 L 1108,761 L 1107,761 L 1106,760 L 1105,760 L 1104,759 L 1101,759 L 1100,758 Z" fill="none" stroke="black" stroke-width="1" /><path d="M 1048,758 L 1047,759 L 1045,759 L 1044,760 L 1042,760 L 1038,764 L 1038,766 L 1037,767 L 1037,778 L 1038,779 L 1038,781 L 1039,782 L 1039,783 L 1042,786 L 1044,786 L 1045,787 L 1057,787 L 1058,786 L 1060,786 L 1064,782 L 1064,780 L 1065,779 L 1065,776 L 1066,775 L 1066,771 L 1065,770 L 1065,767 L 1064,766 L 1064,764 L 1060,760 L 1059,760 L 1058,759 L 1054,759 L 1053,758 Z" fill="none" stroke="black" stroke-width="1" /><path d="M 800,758 L 799,759 L 796,759 L 795,760 L 793,760 L 792,761 L 792,762 L 791,763 L 791,772 L 793,774 L 794,774 L 795,775 L 797,775 L 798,776 L 807,776 L 809,778 L 809,779 L 807,781 L 806,781 L 805,782 L 801,782 L 800,781 L 799,781 L 798,780 L 798,778 L 796,778 L 795,777 L 793,777 L 792,778 L 791,778 L 791,782 L 792,783 L 792,784 L 794,786 L 796,786 L 797,787 L 810,787 L 811,786 L 813,786 L 815,784 L 815,782 L 816,781 L 816,775 L 815,774 L 815,773 L 813,771 L 811,771 L 810,770 L 800,770 L 797,767 L 800,764 L 806,764 L 808,766 L 808,767 L 809,768 L 815,768 L 815,764 L 814,763 L 814,762 L 812,760 L 811,760 L 810,759 L 807,759 L 806,758 Z" fill="none" stroke="black" stroke-width="1" /><path d="M 182,758 L 181,759 L 178,759 L 177,760 L 176,760 L 172,764 L 172,766 L 171,767 L 171,770 L 170,771 L 170,776 L 171,777 L 171,779 L 172,780 L 172,782 L 173,783 L 173,784 L 174,784 L 176,786 L 178,786 L 179,787 L 191,787 L 192,786 L 194,786 L 196,784 L 197,784 L 197,783 L 198,782 L 198,777 L 193,777 L 189,781 L 187,781 L 186,782 L 183,782 L 182,781 L 181,781 L 178,778 L 178,776 L 177,775 L 177,770 L 178,769 L 178,768 L 182,764 L 188,764 L 193,769 L 195,769 L 196,768 L 197,769 L 198,769 L 198,765 L 197,764 L 197,763 L 194,760 L 192,760 L 191,759 L 188,759 L 187,758 Z" fill="none" stroke="black" stroke-width="1" /><path d="M 941,634 L 941,701 L 957,701 L 957,680 L 958,679 L 968,679 L 971,682 L 971,683 L 972,684 L 972,685 L 974,687 L 974,688 L 975,689 L 975,690 L 976,691 L 976,692 L 978,694 L 978,695 L 979,696 L 979,697 L 981,699 L 981,700 L 982,701 L 999,701 L 999,699 L 997,697 L 997,696 L 996,695 L 996,694 L 994,692 L 994,691 L 993,690 L 993,689 L 991,687 L 991,686 L 990,685 L 990,684 L 989,683 L 989,682 L 987,680 L 987,679 L 986,678 L 987,677 L 988,677 L 989,676 L 990,676 L 995,671 L 995,670 L 996,669 L 996,667 L 997,666 L 997,663 L 998,662 L 998,651 L 997,650 L 997,647 L 996,646 L 996,644 L 995,643 L 995,642 L 990,637 L 989,637 L 988,636 L 987,636 L 986,635 L 983,635 L 982,634 Z" fill="none" stroke="black" stroke-width="1" /><path d="M 865,634 L 865,701 L 919,701 L 919,700 L 920,699 L 920,688 L 883,688 L 881,686 L 881,676 L 883,674 L 910,674 L 910,661 L 883,661 L 881,659 L 881,649 L 883,647 L 920,647 L 920,634 Z" fill="none" stroke="black" stroke-width="1" /><path d="M 691,634 L 691,700 L 692,701 L 707,701 L 707,656 L 707,700 L 706,701 L 693,701 L 691,699 L 691,635 L 692,634 L 711,634 L 712,635 L 712,636 L 714,638 L 714,639 L 715,640 L 715,641 L 717,643 L 717,644 L 718,645 L 718,646 L 720,648 L 720,649 L 721,650 L 721,651 L 723,653 L 723,654 L 724,655 L 724,656 L 726,658 L 726,659 L 727,660 L 727,661 L 729,663 L 729,664 L 730,665 L 730,666 L 732,668 L 732,669 L 733,670 L 733,671 L 735,673 L 735,674 L 736,675 L 736,676 L 737,677 L 737,678 L 738,679 L 739,678 L 739,635 L 740,634 L 754,634 L 755,635 L 755,637 L 756,638 L 756,640 L 755,641 L 755,696 L 756,697 L 755,698 L 755,700 L 754,701 L 736,701 L 734,699 L 734,698 L 733,697 L 733,696 L 731,694 L 731,693 L 730,692 L 730,691 L 728,689 L 728,688 L 727,687 L 727,686 L 725,684 L 725,683 L 724,682 L 724,681 L 722,679 L 722,678 L 721,677 L 721,676 L 719,674 L 719,673 L 718,672 L 718,671 L 716,669 L 716,668 L 715,667 L 715,666 L 713,664 L 713,663 L 712,662 L 712,661 L 710,659 L 710,658 L 709,657 L 709,656 L 709,658 L 710,659 L 710,660 L 712,662 L 712,663 L 713,664 L 713,665 L 715,667 L 715,668 L 716,669 L 716,670 L 718,672 L 718,673 L 719,674 L 719,675 L 721,677 L 721,678 L 722,679 L 722,680 L 724,682 L 724,683 L 725,684 L 725,685 L 727,687 L 727,688 L 728,689 L 728,690 L 730,692 L 730,693 L 731,694 L 731,695 L 733,697 L 733,698 L 734,699 L 734,700 L 735,701 L 755,701 L 755,698 L 756,697 L 755,696 L 755,641 L 756,640 L 756,638 L 755,637 L 755,634 L 739,634 L 739,677 L 738,678 L 737,677 L 737,676 L 736,675 L 736,674 L 735,673 L 735,672 L 733,670 L 733,669 L 732,668 L 732,667 L 730,665 L 730,664 L 729,663 L 729,662 L 727,660 L 727,659 L 726,658 L 726,657 L 724,655 L 724,654 L 723,653 L 723,652 L 721,650 L 721,649 L 720,648 L 720,647 L 718,645 L 718,644 L 717,643 L 717,642 L 715,640 L 715,639 L 714,638 L 714,637 L 712,635 L 712,634 Z" fill="none" stroke="black" stroke-width="1" /><path d="M 627,634 L 627,636 L 626,637 L 626,638 L 625,639 L 625,641 L 624,642 L 624,644 L 623,645 L 623,646 L 622,647 L 622,649 L 621,650 L 621,652 L 620,653 L 620,654 L 619,655 L 619,657 L 618,658 L 618,659 L 617,660 L 617,662 L 616,663 L 616,665 L 615,666 L 615,667 L 614,668 L 614,670 L 613,671 L 613,673 L 612,674 L 612,675 L 611,676 L 611,678 L 610,679 L 610,681 L 609,682 L 609,683 L 608,684 L 608,686 L 607,687 L 607,689 L 606,690 L 606,691 L 605,692 L 605,694 L 604,695 L 604,697 L 603,698 L 603,701 L 618,701 L 619,700 L 619,698 L 620,697 L 620,696 L 621,695 L 621,693 L 622,692 L 622,691 L 624,689 L 649,689 L 650,690 L 650,692 L 651,693 L 651,694 L 652,695 L 652,697 L 653,698 L 653,700 L 654,701 L 669,701 L 670,700 L 669,699 L 669,697 L 668,696 L 668,694 L 667,693 L 667,692 L 666,691 L 666,689 L 665,688 L 665,686 L 664,685 L 664,684 L 663,683 L 663,681 L 662,680 L 662,679 L 661,678 L 661,676 L 660,675 L 660,673 L 659,672 L 659,671 L 658,670 L 658,668 L 657,667 L 657,665 L 656,664 L 656,663 L 655,662 L 655,660 L 654,659 L 654,657 L 653,656 L 653,655 L 652,654 L 652,652 L 651,651 L 651,649 L 650,648 L 650,647 L 649,646 L 649,644 L 648,643 L 648,642 L 647,641 L 647,639 L 646,638 L 646,636 L 645,635 L 645,634 Z" fill="none" stroke="black" stroke-width="1" /><path d="M 526,634 L 526,699 L 527,700 L 527,701 L 581,701 L 581,688 L 545,688 L 543,686 L 543,636 L 542,635 L 542,634 Z" fill="none" stroke="black" stroke-width="1" /><path d="M 441,634 L 441,677 L 442,678 L 442,682 L 443,683 L 443,685 L 444,686 L 444,688 L 445,689 L 445,690 L 447,692 L 447,693 L 450,696 L 451,696 L 453,698 L 454,698 L 455,699 L 457,699 L 458,700 L 460,700 L 461,701 L 465,701 L 466,702 L 480,702 L 481,701 L 485,701 L 486,700 L 488,700 L 489,699 L 491,699 L 492,698 L 493,698 L 495,696 L 496,696 L 500,692 L 500,691 L 501,690 L 501,689 L 502,688 L 502,687 L 503,686 L 503,684 L 504,683 L 504,680 L 505,679 L 505,634 L 489,634 L 489,677 L 488,678 L 488,680 L 487,681 L 487,682 L 483,686 L 482,686 L 480,688 L 467,688 L 466,687 L 465,687 L 464,686 L 463,686 L 460,683 L 460,682 L 458,680 L 458,676 L 457,675 L 457,634 Z" fill="none" stroke="black" stroke-width="1" /><path d="M 362,634 L 362,635 L 361,636 L 361,646 L 362,647 L 381,647 L 383,649 L 383,694 L 382,695 L 382,697 L 383,698 L 383,701 L 398,701 L 399,700 L 399,649 L 401,647 L 420,647 L 420,634 Z" fill="none" stroke="black" stroke-width="1" /><path d="M 803,633 L 802,634 L 798,634 L 797,635 L 794,635 L 793,636 L 792,636 L 791,637 L 790,637 L 789,638 L 788,638 L 782,644 L 782,645 L 780,647 L 780,649 L 779,650 L 779,651 L 778,652 L 778,655 L 777,656 L 777,664 L 776,665 L 776,670 L 777,671 L 777,678 L 778,679 L 778,682 L 779,683 L 779,685 L 780,686 L 780,688 L 782,690 L 782,691 L 787,696 L 788,696 L 790,698 L 792,698 L 793,699 L 794,699 L 795,700 L 797,700 L 798,701 L 803,701 L 804,702 L 819,702 L 820,701 L 825,701 L 826,700 L 828,700 L 829,699 L 831,699 L 832,698 L 833,698 L 834,697 L 835,697 L 837,695 L 838,695 L 839,694 L 839,693 L 841,691 L 841,690 L 842,689 L 842,687 L 843,686 L 843,684 L 844,683 L 844,678 L 828,678 L 828,679 L 827,680 L 827,681 L 826,682 L 826,683 L 824,685 L 823,685 L 822,686 L 821,686 L 820,687 L 819,687 L 818,688 L 812,688 L 811,689 L 810,688 L 804,688 L 803,687 L 802,687 L 800,685 L 799,685 L 797,683 L 797,682 L 795,680 L 795,679 L 794,678 L 794,676 L 793,675 L 793,660 L 794,659 L 794,656 L 796,654 L 796,653 L 800,649 L 801,649 L 802,648 L 803,648 L 804,647 L 807,647 L 808,646 L 815,646 L 816,647 L 819,647 L 820,648 L 821,648 L 822,649 L 823,649 L 827,653 L 827,654 L 828,655 L 828,657 L 843,657 L 844,656 L 844,653 L 843,652 L 843,650 L 842,649 L 842,647 L 841,646 L 841,645 L 838,642 L 838,641 L 837,641 L 834,638 L 833,638 L 832,637 L 831,637 L 830,636 L 828,636 L 827,635 L 825,635 L 824,634 L 821,634 L 820,633 Z" fill="none" stroke="black" stroke-width="1" /><path d="M 300,633 L 299,634 L 295,634 L 294,635 L 292,635 L 291,636 L 289,636 L 288,637 L 287,637 L 282,642 L 282,643 L 281,644 L 281,647 L 280,648 L 280,661 L 281,662 L 281,664 L 282,665 L 282,666 L 283,667 L 283,668 L 285,670 L 286,670 L 288,672 L 290,672 L 291,673 L 294,673 L 295,674 L 317,674 L 318,675 L 321,675 L 324,678 L 324,683 L 323,684 L 323,685 L 321,687 L 320,687 L 319,688 L 311,688 L 310,689 L 309,689 L 308,688 L 301,688 L 297,684 L 297,682 L 296,681 L 296,679 L 295,678 L 282,678 L 281,679 L 280,679 L 280,685 L 281,686 L 281,688 L 282,689 L 282,691 L 283,692 L 283,693 L 288,698 L 289,698 L 290,699 L 292,699 L 293,700 L 295,700 L 296,701 L 301,701 L 302,702 L 318,702 L 319,701 L 325,701 L 326,700 L 328,700 L 329,699 L 330,699 L 331,698 L 333,698 L 338,693 L 338,691 L 339,690 L 339,688 L 340,687 L 340,673 L 339,672 L 339,670 L 338,669 L 338,668 L 334,664 L 333,664 L 332,663 L 331,663 L 330,662 L 327,662 L 326,661 L 303,661 L 302,660 L 300,660 L 296,656 L 296,652 L 297,651 L 297,650 L 300,647 L 304,647 L 305,646 L 314,646 L 315,647 L 317,647 L 318,648 L 319,648 L 320,649 L 320,650 L 322,652 L 322,656 L 338,656 L 338,648 L 337,647 L 337,645 L 336,644 L 336,643 L 335,642 L 335,641 L 331,637 L 330,637 L 329,636 L 327,636 L 326,635 L 325,635 L 324,634 L 320,634 L 319,633 Z" fill="none" stroke="black" stroke-width="1" /><path d="M 671,469 L 670,470 L 664,470 L 663,471 L 659,471 L 658,472 L 655,472 L 654,473 L 652,473 L 651,474 L 649,474 L 648,475 L 646,475 L 645,476 L 643,476 L 642,477 L 640,477 L 639,478 L 638,478 L 637,479 L 636,479 L 635,480 L 634,480 L 633,481 L 632,481 L 631,482 L 630,482 L 629,483 L 628,483 L 627,484 L 626,484 L 625,485 L 624,485 L 623,486 L 622,486 L 621,487 L 620,487 L 618,489 L 617,489 L 616,490 L 615,490 L 614,491 L 613,491 L 612,492 L 611,492 L 609,494 L 608,494 L 606,496 L 605,496 L 602,499 L 601,499 L 597,503 L 596,503 L 593,506 L 592,506 L 587,511 L 586,511 L 585,512 L 585,513 L 584,514 L 583,514 L 576,521 L 575,521 L 575,522 L 574,523 L 573,523 L 568,528 L 569,528 L 578,519 L 579,519 L 587,511 L 588,511 L 593,506 L 594,506 L 597,503 L 598,503 L 602,499 L 603,499 L 606,496 L 607,496 L 609,494 L 610,494 L 612,492 L 613,492 L 614,491 L 615,491 L 616,490 L 617,490 L 618,489 L 619,489 L 621,487 L 622,487 L 623,486 L 624,486 L 625,485 L 626,485 L 627,484 L 628,484 L 629,483 L 630,483 L 631,482 L 632,482 L 633,481 L 634,481 L 635,480 L 636,480 L 637,479 L 638,479 L 639,478 L 640,478 L 641,477 L 643,477 L 644,476 L 645,476 L 646,475 L 648,475 L 649,474 L 651,474 L 652,473 L 654,473 L 655,472 L 658,472 L 659,471 L 663,471 L 664,470 L 670,470 L 671,469 L 681,469 L 682,470 L 687,470 L 688,471 L 690,471 L 691,472 L 693,472 L 694,473 L 695,473 L 696,474 L 697,474 L 699,476 L 700,476 L 708,484 L 708,485 L 710,487 L 710,488 L 711,489 L 711,490 L 712,491 L 712,492 L 713,493 L 713,496 L 714,497 L 714,506 L 715,507 L 714,508 L 714,515 L 713,516 L 713,519 L 712,520 L 712,522 L 711,523 L 711,524 L 710,525 L 710,526 L 709,527 L 709,528 L 708,529 L 708,530 L 707,531 L 707,532 L 706,533 L 706,534 L 704,536 L 704,537 L 701,540 L 701,541 L 698,544 L 698,545 L 693,550 L 693,551 L 686,558 L 685,558 L 680,563 L 679,563 L 678,564 L 677,564 L 675,566 L 673,566 L 672,567 L 669,567 L 668,568 L 665,568 L 664,567 L 663,567 L 658,562 L 658,556 L 659,555 L 659,553 L 660,552 L 660,551 L 661,550 L 661,548 L 662,547 L 662,545 L 663,544 L 663,543 L 664,542 L 664,541 L 665,540 L 665,539 L 666,538 L 666,536 L 667,535 L 667,533 L 668,532 L 668,531 L 669,530 L 669,527 L 670,526 L 670,524 L 671,523 L 671,516 L 670,515 L 670,513 L 669,512 L 668,512 L 667,511 L 659,511 L 658,512 L 656,512 L 655,513 L 653,513 L 651,515 L 650,515 L 649,516 L 648,516 L 647,517 L 646,517 L 645,518 L 644,518 L 642,520 L 641,520 L 638,523 L 637,523 L 635,525 L 634,525 L 633,526 L 632,526 L 629,529 L 628,529 L 625,532 L 624,532 L 620,536 L 619,536 L 617,538 L 616,538 L 612,542 L 611,542 L 607,546 L 606,546 L 604,548 L 603,548 L 598,553 L 597,553 L 594,556 L 593,556 L 590,559 L 589,559 L 586,562 L 585,562 L 582,565 L 581,565 L 577,569 L 576,569 L 574,571 L 573,571 L 571,573 L 570,573 L 566,577 L 565,577 L 564,578 L 563,578 L 559,582 L 561,580 L 562,580 L 564,578 L 565,578 L 567,576 L 568,576 L 571,573 L 572,573 L 574,571 L 575,571 L 579,567 L 580,567 L 583,564 L 584,564 L 587,561 L 588,561 L 591,558 L 592,558 L 595,555 L 596,555 L 599,552 L 600,552 L 604,548 L 605,548 L 607,546 L 608,546 L 612,542 L 613,542 L 617,538 L 618,538 L 620,536 L 621,536 L 625,532 L 626,532 L 629,529 L 630,529 L 633,526 L 634,526 L 636,524 L 637,524 L 638,523 L 639,523 L 642,520 L 643,520 L 645,518 L 646,518 L 647,517 L 648,517 L 649,516 L 650,516 L 651,515 L 652,515 L 654,513 L 655,513 L 656,512 L 658,512 L 659,511 L 666,511 L 667,512 L 668,512 L 670,514 L 670,515 L 671,516 L 671,523 L 670,524 L 670,526 L 669,527 L 669,530 L 668,531 L 668,532 L 667,533 L 667,534 L 666,535 L 666,537 L 665,538 L 665,539 L 664,540 L 664,542 L 663,543 L 663,544 L 662,545 L 662,547 L 661,548 L 661,549 L 660,550 L 660,552 L 659,553 L 659,555 L 658,556 L 658,563 L 662,567 L 664,567 L 665,568 L 668,568 L 669,567 L 672,567 L 673,566 L 675,566 L 676,565 L 677,565 L 678,564 L 679,564 L 680,563 L 681,563 L 686,558 L 687,558 L 693,552 L 693,551 L 698,546 L 698,545 L 701,542 L 701,541 L 704,538 L 704,537 L 706,535 L 706,534 L 707,533 L 707,532 L 708,531 L 708,530 L 709,529 L 709,527 L 711,525 L 711,523 L 712,522 L 712,520 L 713,519 L 713,516 L 714,515 L 714,508 L 715,507 L 714,506 L 714,497 L 713,496 L 713,493 L 712,492 L 712,491 L 711,490 L 711,488 L 710,487 L 710,486 L 708,484 L 708,483 L 701,476 L 700,476 L 698,474 L 697,474 L 696,473 L 694,473 L 693,472 L 691,472 L 690,471 L 688,471 L 687,470 L 682,470 L 681,469 Z" fill="none" stroke="black" stroke-width="1" /><path d="M 699,395 L 698,396 L 698,397 L 695,400 L 694,400 L 690,404 L 689,404 L 686,407 L 685,407 L 684,408 L 683,408 L 682,409 L 681,409 L 680,410 L 679,410 L 678,411 L 677,411 L 675,413 L 673,413 L 672,414 L 671,414 L 670,415 L 669,415 L 668,416 L 666,416 L 665,417 L 664,417 L 663,418 L 661,418 L 660,419 L 659,419 L 658,420 L 656,420 L 655,421 L 654,421 L 653,422 L 651,422 L 650,423 L 648,423 L 647,424 L 645,424 L 644,425 L 642,425 L 641,426 L 639,426 L 638,427 L 636,427 L 635,428 L 633,428 L 632,429 L 630,429 L 629,430 L 628,430 L 627,431 L 625,431 L 624,432 L 623,432 L 622,433 L 621,433 L 620,434 L 618,434 L 617,435 L 616,435 L 615,436 L 614,436 L 613,437 L 612,437 L 611,438 L 610,438 L 609,439 L 608,439 L 607,440 L 606,440 L 605,441 L 604,441 L 603,442 L 602,442 L 599,445 L 598,445 L 588,455 L 588,456 L 586,458 L 586,459 L 584,461 L 584,462 L 583,463 L 583,464 L 582,465 L 582,466 L 581,467 L 581,468 L 580,469 L 580,471 L 579,472 L 579,473 L 578,474 L 578,475 L 577,476 L 577,477 L 576,478 L 576,480 L 575,481 L 575,483 L 574,484 L 574,486 L 573,487 L 573,490 L 572,491 L 572,494 L 571,495 L 571,498 L 570,499 L 570,503 L 569,504 L 569,507 L 569,504 L 570,503 L 570,499 L 571,498 L 571,495 L 572,494 L 572,491 L 573,490 L 573,487 L 574,486 L 574,484 L 575,483 L 575,481 L 576,480 L 576,478 L 577,477 L 577,476 L 578,475 L 578,474 L 579,473 L 579,472 L 580,471 L 580,469 L 582,467 L 582,466 L 583,465 L 583,464 L 584,463 L 584,462 L 586,460 L 586,459 L 588,457 L 588,456 L 599,445 L 600,445 L 603,442 L 604,442 L 605,441 L 606,441 L 607,440 L 608,440 L 609,439 L 610,439 L 611,438 L 612,438 L 613,437 L 614,437 L 615,436 L 616,436 L 617,435 L 618,435 L 619,434 L 620,434 L 621,433 L 622,433 L 623,432 L 624,432 L 625,431 L 627,431 L 628,430 L 629,430 L 630,429 L 632,429 L 633,428 L 635,428 L 636,427 L 638,427 L 639,426 L 641,426 L 642,425 L 644,425 L 645,424 L 647,424 L 648,423 L 650,423 L 651,422 L 653,422 L 654,421 L 655,421 L 656,420 L 658,420 L 659,419 L 660,419 L 661,418 L 663,418 L 664,417 L 665,417 L 666,416 L 668,416 L 669,415 L 670,415 L 671,414 L 672,414 L 673,413 L 675,413 L 676,412 L 677,412 L 678,411 L 679,411 L 680,410 L 681,410 L 682,409 L 683,409 L 684,408 L 685,408 L 686,407 L 687,407 L 690,404 L 691,404 L 695,400 L 696,400 L 698,398 L 698,397 L 699,396 L 700,397 L 700,399 L 699,400 L 699,405 L 698,406 L 698,411 L 697,412 L 697,415 L 696,416 L 696,418 L 695,419 L 695,420 L 694,421 L 694,422 L 693,423 L 693,424 L 692,425 L 692,426 L 691,427 L 691,428 L 689,430 L 689,431 L 687,433 L 687,434 L 682,439 L 682,440 L 677,445 L 676,445 L 672,449 L 671,449 L 668,452 L 667,452 L 666,453 L 665,453 L 663,455 L 661,455 L 660,456 L 659,456 L 658,457 L 657,457 L 656,458 L 655,458 L 654,459 L 652,459 L 651,460 L 649,460 L 648,461 L 646,461 L 645,462 L 643,462 L 642,463 L 640,463 L 639,464 L 637,464 L 636,465 L 634,465 L 633,466 L 630,466 L 629,467 L 628,467 L 627,468 L 625,468 L 624,469 L 623,469 L 622,470 L 620,470 L 619,471 L 618,471 L 617,472 L 616,472 L 615,473 L 614,473 L 613,474 L 612,474 L 611,475 L 610,475 L 609,476 L 608,476 L 607,477 L 606,477 L 604,479 L 603,479 L 602,480 L 601,480 L 599,482 L 598,482 L 596,484 L 595,484 L 593,486 L 592,486 L 590,488 L 589,488 L 585,492 L 584,492 L 571,505 L 571,507 L 571,506 L 585,492 L 586,492 L 590,488 L 591,488 L 593,486 L 594,486 L 596,484 L 597,484 L 599,482 L 600,482 L 602,480 L 603,480 L 604,479 L 605,479 L 607,477 L 608,477 L 609,476 L 610,476 L 611,475 L 612,475 L 613,474 L 614,474 L 615,473 L 616,473 L 617,472 L 618,472 L 619,471 L 620,471 L 621,470 L 622,470 L 623,469 L 624,469 L 625,468 L 627,468 L 628,467 L 629,467 L 630,466 L 633,466 L 634,465 L 636,465 L 637,464 L 639,464 L 640,463 L 642,463 L 643,462 L 645,462 L 646,461 L 648,461 L 649,460 L 651,460 L 652,459 L 654,459 L 655,458 L 656,458 L 657,457 L 659,457 L 660,456 L 661,456 L 662,455 L 664,455 L 666,453 L 667,453 L 668,452 L 669,452 L 672,449 L 673,449 L 677,445 L 678,445 L 682,441 L 682,440 L 687,435 L 687,434 L 689,432 L 689,431 L 691,429 L 691,428 L 692,427 L 692,426 L 693,425 L 693,424 L 694,423 L 694,421 L 695,420 L 695,419 L 696,418 L 696,416 L 697,415 L 697,412 L 698,411 L 698,406 L 699,405 L 699,400 L 700,399 L 700,396 Z" fill="none" stroke="black" stroke-width="1" /><path d="M 635,304 L 634,305 L 632,305 L 631,306 L 629,306 L 628,307 L 627,307 L 624,310 L 623,310 L 621,312 L 621,313 L 619,315 L 619,316 L 618,317 L 618,318 L 617,319 L 617,320 L 616,321 L 616,324 L 615,325 L 615,335 L 616,336 L 616,338 L 617,339 L 617,341 L 618,342 L 618,343 L 619,344 L 619,345 L 626,352 L 627,352 L 628,353 L 629,353 L 630,354 L 632,354 L 633,355 L 635,355 L 636,356 L 647,356 L 648,355 L 650,355 L 651,354 L 653,354 L 654,353 L 655,353 L 657,351 L 658,351 L 662,347 L 662,346 L 664,344 L 664,343 L 665,342 L 665,341 L 666,340 L 666,338 L 667,337 L 667,332 L 668,331 L 668,328 L 667,327 L 667,323 L 666,322 L 666,320 L 665,319 L 665,317 L 663,315 L 663,314 L 657,308 L 656,308 L 655,307 L 654,307 L 653,306 L 652,306 L 651,305 L 649,305 L 648,304 Z" fill="none" stroke="black" stroke-width="1" /><path d="M 721,291 L 720,292 L 719,292 L 718,293 L 717,293 L 712,298 L 712,299 L 709,302 L 709,303 L 707,305 L 707,306 L 705,308 L 705,309 L 703,311 L 703,312 L 701,314 L 701,315 L 700,316 L 700,317 L 698,319 L 698,320 L 697,321 L 697,322 L 695,324 L 695,325 L 693,327 L 693,328 L 691,330 L 691,331 L 689,333 L 689,334 L 687,336 L 687,337 L 684,340 L 684,341 L 672,353 L 671,353 L 668,356 L 667,356 L 666,357 L 665,357 L 663,359 L 662,359 L 661,360 L 660,360 L 658,362 L 656,362 L 655,363 L 654,363 L 653,364 L 652,364 L 651,365 L 649,365 L 648,366 L 647,366 L 646,367 L 644,367 L 643,368 L 641,368 L 640,369 L 638,369 L 637,370 L 635,370 L 634,371 L 631,371 L 630,372 L 627,372 L 626,373 L 624,373 L 623,374 L 620,374 L 619,375 L 617,375 L 616,376 L 613,376 L 612,377 L 610,377 L 609,378 L 607,378 L 606,379 L 604,379 L 603,380 L 601,380 L 600,381 L 598,381 L 597,382 L 596,382 L 595,383 L 593,383 L 592,384 L 591,384 L 590,385 L 589,385 L 588,386 L 587,386 L 586,387 L 584,387 L 582,389 L 581,389 L 579,391 L 578,391 L 576,393 L 575,393 L 571,397 L 570,397 L 559,408 L 559,409 L 556,412 L 556,413 L 553,416 L 553,417 L 550,420 L 550,421 L 549,422 L 549,423 L 548,424 L 548,425 L 546,427 L 546,428 L 545,429 L 545,430 L 544,431 L 544,432 L 543,433 L 543,434 L 542,435 L 542,436 L 541,437 L 541,439 L 540,440 L 540,441 L 539,442 L 539,443 L 538,444 L 538,445 L 538,444 L 539,443 L 539,442 L 540,441 L 540,440 L 541,439 L 541,438 L 542,437 L 542,436 L 543,435 L 543,433 L 545,431 L 545,430 L 546,429 L 546,428 L 548,426 L 548,425 L 549,424 L 549,423 L 550,422 L 550,421 L 553,418 L 553,417 L 556,414 L 556,413 L 559,410 L 559,409 L 572,396 L 573,396 L 576,393 L 577,393 L 579,391 L 580,391 L 582,389 L 583,389 L 585,387 L 586,387 L 587,386 L 589,386 L 591,384 L 592,384 L 593,383 L 595,383 L 596,382 L 597,382 L 598,381 L 600,381 L 601,380 L 603,380 L 604,379 L 606,379 L 607,378 L 609,378 L 610,377 L 612,377 L 613,376 L 616,376 L 617,375 L 619,375 L 620,374 L 623,374 L 624,373 L 626,373 L 627,372 L 630,372 L 631,371 L 634,371 L 635,370 L 637,370 L 638,369 L 640,369 L 641,368 L 643,368 L 644,367 L 646,367 L 647,366 L 648,366 L 649,365 L 651,365 L 652,364 L 654,364 L 655,363 L 656,363 L 657,362 L 658,362 L 659,361 L 660,361 L 661,360 L 662,360 L 663,359 L 664,359 L 666,357 L 667,357 L 668,356 L 669,356 L 672,353 L 673,353 L 684,342 L 684,341 L 687,338 L 687,337 L 689,335 L 689,334 L 691,332 L 691,331 L 693,329 L 693,328 L 695,326 L 695,325 L 697,323 L 697,322 L 698,321 L 698,320 L 700,318 L 700,317 L 701,316 L 701,315 L 703,313 L 703,312 L 705,310 L 705,309 L 707,307 L 707,306 L 709,304 L 709,303 L 712,300 L 712,299 L 718,293 L 719,293 L 721,291 L 727,291 L 733,297 L 733,298 L 734,299 L 734,302 L 735,303 L 735,312 L 734,313 L 734,316 L 733,317 L 733,319 L 732,320 L 732,322 L 731,323 L 731,324 L 730,325 L 730,326 L 729,327 L 729,329 L 728,330 L 728,331 L 727,332 L 727,333 L 726,334 L 726,335 L 725,336 L 725,337 L 724,338 L 724,339 L 722,341 L 722,342 L 721,343 L 721,344 L 720,345 L 720,346 L 718,348 L 718,349 L 717,350 L 717,351 L 716,352 L 716,353 L 714,355 L 714,356 L 713,357 L 713,358 L 710,361 L 710,362 L 708,364 L 708,365 L 705,368 L 705,369 L 701,373 L 701,374 L 685,390 L 684,390 L 681,393 L 680,393 L 677,396 L 676,396 L 675,397 L 674,397 L 672,399 L 671,399 L 670,400 L 669,400 L 668,401 L 667,401 L 666,402 L 665,402 L 664,403 L 663,403 L 662,404 L 661,404 L 660,405 L 659,405 L 658,406 L 656,406 L 655,407 L 653,407 L 652,408 L 651,408 L 650,409 L 648,409 L 647,410 L 645,410 L 644,411 L 641,411 L 640,412 L 638,412 L 637,413 L 634,413 L 633,414 L 631,414 L 630,415 L 627,415 L 626,416 L 623,416 L 622,417 L 620,417 L 619,418 L 617,418 L 616,419 L 613,419 L 612,420 L 610,420 L 609,421 L 607,421 L 606,422 L 605,422 L 604,423 L 602,423 L 601,424 L 600,424 L 599,425 L 598,425 L 597,426 L 596,426 L 594,428 L 592,428 L 590,430 L 589,430 L 587,432 L 586,432 L 583,435 L 582,435 L 578,439 L 577,439 L 571,445 L 570,445 L 551,464 L 550,464 L 548,466 L 547,466 L 546,467 L 545,467 L 544,468 L 540,468 L 539,467 L 538,467 L 539,467 L 540,468 L 544,468 L 545,467 L 546,467 L 547,466 L 549,466 L 553,462 L 554,462 L 571,445 L 572,445 L 578,439 L 579,439 L 583,435 L 584,435 L 587,432 L 588,432 L 590,430 L 591,430 L 593,428 L 594,428 L 595,427 L 596,427 L 597,426 L 598,426 L 599,425 L 600,425 L 601,424 L 602,424 L 603,423 L 604,423 L 605,422 L 606,422 L 607,421 L 609,421 L 610,420 L 612,420 L 613,419 L 616,419 L 617,418 L 619,418 L 620,417 L 622,417 L 623,416 L 626,416 L 627,415 L 630,415 L 631,414 L 633,414 L 634,413 L 637,413 L 638,412 L 640,412 L 641,411 L 644,411 L 645,410 L 647,410 L 648,409 L 650,409 L 651,408 L 652,408 L 653,407 L 655,407 L 656,406 L 658,406 L 659,405 L 660,405 L 661,404 L 663,404 L 665,402 L 667,402 L 668,401 L 669,401 L 670,400 L 671,400 L 672,399 L 673,399 L 675,397 L 676,397 L 677,396 L 678,396 L 681,393 L 682,393 L 685,390 L 686,390 L 701,375 L 701,374 L 705,370 L 705,369 L 708,366 L 708,365 L 710,363 L 710,362 L 713,359 L 713,358 L 714,357 L 714,356 L 716,354 L 716,353 L 717,352 L 717,351 L 718,350 L 718,349 L 720,347 L 720,346 L 721,345 L 721,344 L 722,343 L 722,342 L 724,340 L 724,339 L 725,338 L 725,337 L 726,336 L 726,335 L 727,334 L 727,333 L 728,332 L 728,331 L 729,330 L 729,328 L 730,327 L 730,326 L 731,325 L 731,323 L 732,322 L 732,320 L 733,319 L 733,317 L 734,316 L 734,313 L 735,312 L 735,303 L 734,302 L 734,299 L 733,298 L 733,296 L 728,291 Z" fill="none" stroke="black" stroke-width="1" /><path d="M 718,258 L 717,259 L 716,259 L 712,263 L 712,264 L 711,265 L 711,266 L 710,267 L 710,268 L 711,267 L 711,266 L 712,265 L 712,264 L 717,259 L 718,259 Z" fill="none" stroke="black" stroke-width="1" /><path d="M 744,249 L 743,250 L 743,251 L 739,255 L 738,255 L 736,257 L 735,257 L 734,258 L 733,258 L 732,259 L 731,259 L 730,260 L 728,260 L 727,261 L 726,261 L 725,262 L 723,262 L 722,263 L 721,263 L 720,264 L 720,265 L 719,266 L 719,268 L 718,269 L 718,271 L 717,272 L 718,273 L 718,274 L 721,271 L 722,271 L 724,269 L 725,269 L 728,266 L 729,266 L 730,265 L 732,267 L 733,267 L 735,269 L 736,269 L 739,272 L 740,272 L 742,274 L 743,273 L 743,272 L 742,271 L 742,269 L 741,268 L 741,266 L 740,265 L 740,263 L 739,262 L 739,259 L 743,255 L 744,255 L 746,253 L 747,253 L 749,251 L 750,251 L 750,249 Z" fill="none" stroke="black" stroke-width="1" /><path d="M 744,234 L 744,242 L 745,243 L 745,244 L 744,245 L 744,247 L 744,245 L 745,244 L 745,243 L 744,242 Z" fill="none" stroke="black" stroke-width="1" /><path d="M 742,234 L 742,238 L 741,239 L 741,240 L 740,241 L 740,242 L 737,245 L 737,246 L 740,243 L 740,242 L 741,241 L 741,240 L 742,239 Z" fill="none" stroke="black" stroke-width="1" /><path d="M 729,234 L 729,237 L 728,238 L 728,240 L 727,241 L 727,243 L 726,244 L 726,246 L 723,249 L 710,249 L 710,251 L 711,251 L 713,253 L 714,253 L 717,256 L 722,256 L 724,254 L 725,254 L 726,253 L 727,253 L 728,252 L 729,252 L 730,251 L 731,251 L 733,249 L 734,249 L 734,245 L 733,244 L 733,242 L 732,241 L 732,239 L 731,238 L 731,234 L 731,238 L 732,239 L 732,241 L 733,242 L 733,244 L 734,245 L 734,248 L 733,249 L 732,249 L 730,251 L 729,251 L 728,252 L 727,252 L 726,253 L 725,253 L 724,254 L 723,254 L 721,256 L 718,256 L 715,253 L 714,253 L 712,251 L 711,251 L 710,250 L 711,249 L 724,249 L 725,248 L 725,247 L 726,246 L 726,244 L 727,243 L 727,241 L 728,240 L 728,238 L 729,237 Z" fill="none" stroke="black" stroke-width="1" /></svg>